<svg width="62" height="62" viewBox="0 0 62 62" fill="none" xmlns="http://www.w3.org/2000/svg">
<path d="M56.3835 3.31285C55.5156 5.36303 54.4044 7.30496 53.0732 9.0982C47.2408 3.35904 39.3326 0.134653 31.0867 0.133667C14.0334 0.133667 2.88122e-08 13.9621 2.88122e-08 30.7709C-0.000181312 34.9216 0.855641 39.0292 2.5156 42.8446C4.17556 46.66 6.60508 50.1039 9.65694 52.9675L10.8035 53.9686C16.4068 58.62 23.4989 61.1731 30.8281 61.1774C47.0418 61.1774 60.6714 48.6685 61.8257 32.7259C62.6735 24.9216 60.3485 15.0509 56.3835 3.31285ZM14.0736 53.1419C13.824 53.4447 13.5089 53.6889 13.1514 53.8566C12.7938 54.0244 12.4027 54.1115 12.0067 54.1116C10.5454 54.1116 9.34997 52.9274 9.34997 51.4887C9.34997 50.0505 10.5532 48.8663 12.0067 48.8663C12.6119 48.8663 13.2098 49.0727 13.678 49.4546C14.8163 50.3603 14.994 52.0212 14.0736 53.1419ZM56.2547 43.971C48.5839 54.0401 32.2008 50.6464 21.696 51.1312C21.696 51.1312 19.831 51.2427 17.9577 51.5445C17.9577 51.5445 18.6597 51.2504 19.5724 50.9086C26.9445 48.3815 30.4325 47.8886 34.9136 45.6237C43.3514 41.3958 51.6923 32.1452 53.4286 22.5209C50.2151 31.7796 40.4768 39.7349 31.6033 42.9694C25.5235 45.179 14.5418 47.3246 14.5418 47.3246L14.0978 47.0939C6.62114 43.51 6.39454 27.5598 19.984 22.4099C25.935 20.1526 31.6275 21.3926 38.055 19.8823C44.9182 18.2773 52.8553 13.2065 56.0848 6.59452C59.7021 17.1727 64.0544 33.7346 56.2543 43.971H56.2547Z" fill="url(#paint0_linear_34_60)"/>
<defs>
<linearGradient id="paint0_linear_34_60" x1="0" y1="0.133667" x2="52.7519" y2="68.5283" gradientUnits="userSpaceOnUse">
<stop stop-color="#A4DAF9"/>
<stop offset="0.0001" stop-color="#A4DAF9"/>
<stop offset="1" stop-color="#1B4380"/>
</linearGradient>
</defs>
</svg>
