<svg width="61" height="62" viewBox="0 0 61 62" fill="none" xmlns="http://www.w3.org/2000/svg">
<path fill-rule="evenodd" clip-rule="evenodd" d="M60.1624 37.0914C59.9334 35.6298 58.6865 34.6726 57.2361 34.608C56.7111 34.5845 56.1779 34.6386 55.6544 34.7042C55.0221 34.7833 54.3974 34.9236 53.7665 35.0163C53.3305 35.0804 52.8884 35.1099 52.453 35.154L52.4423 35.0984C53.2552 33.5867 54.1023 32.0915 54.8715 30.5583C55.4611 29.3822 55.9658 28.1636 56.4873 26.9549C57.3501 24.9523 58.0394 22.8877 58.6102 20.7894C59.1571 18.7804 59.6251 16.7492 59.7722 14.665C59.8312 13.8326 59.8719 12.9966 59.8673 12.1631C59.8632 11.4984 59.7905 10.8327 59.7228 10.17C59.6465 9.41068 59.4135 8.6909 59.091 7.99816C58.6657 7.08554 58.0063 6.33671 57.3124 5.62544C56.7569 5.05593 56.1459 4.537 55.54 4.01858C54.6761 3.27876 53.705 2.68821 52.6961 2.16378C51.5533 1.56588 50.3426 1.1035 49.0892 0.786329C48.3296 0.595489 47.5528 0.453737 46.7836 0.302467C46.5068 0.247369 46.2296 0.133667 45.9528 0.133667H40.7428C40.5546 0.133667 40.3679 0.229337 40.1781 0.250375C38.9307 0.387118 37.698 0.61853 36.501 0.98368C36.0533 1.12042 35.6442 1.03427 35.2189 0.995701C34.8928 0.966149 34.5723 0.879995 34.2462 0.863967C33.0039 0.802858 31.76 0.713198 30.5182 0.726222C29.3283 0.738243 28.1505 0.931086 26.9987 1.25316C26.0347 1.52264 25.0915 1.85172 24.2276 2.35061C23.8578 2.56399 23.5648 2.52392 23.1822 2.41523C21.8966 2.05008 20.6019 1.70697 19.2959 1.41895C18.482 1.23964 17.6451 1.15048 16.8138 1.06482C16.0161 0.983202 15.2154 0.934072 14.4136 0.917562C13.6311 0.901033 12.8431 0.901534 12.0642 0.969655C10.8236 1.07584 9.60079 1.33033 8.42267 1.7275C7.1179 2.16615 5.89875 2.82087 4.81775 3.66345C3.71532 4.52248 2.83113 5.57134 2.11991 6.76898C1.37054 8.03273 0.856716 9.38563 0.537228 10.8067C0.364257 11.5765 0.254878 12.3679 0.136342 13.1498C0.099204 13.3933 0.508738 13.6367 0 13.8791V17.2822C0.508738 17.5086 0.105817 17.7345 0.135324 17.9614C0.206039 18.5069 0.268614 19.0568 0.362222 19.5983C0.510265 20.4553 0.685779 21.3099 0.864855 22.1614C1.11351 23.3515 1.3757 24.5389 1.65136 25.7232C1.85283 26.5847 2.08227 27.4413 2.32239 28.2933C2.68919 29.5946 3.0504 30.8984 3.46502 32.1852C3.85013 33.3808 4.29121 34.5594 4.72872 35.738C5.33463 37.3684 6.06009 38.9462 6.93003 40.4584C7.68246 41.7678 8.54223 42.994 9.69554 44.0027C10.4556 44.6674 11.3016 45.1783 12.2865 45.4338C13.0603 45.6342 13.8468 45.6582 14.6389 45.4984C15.5414 45.3177 16.3845 44.92 17.0931 44.3409C17.176 44.2737 17.2671 44.2226 17.3653 44.3459C17.7392 44.8122 18.2398 45.1232 18.7633 45.3922C20.1761 46.1175 21.7155 46.3349 23.2794 46.4236C23.6579 46.4451 24.0404 46.3915 24.422 46.381C25.1653 46.3609 25.8877 46.2182 26.5984 46.0158C26.9708 45.9096 27.3345 45.7749 27.7135 45.6492C27.7334 46.0464 27.7588 46.4291 27.7705 46.8117L27.8234 48.8985C27.8331 49.216 27.8458 49.5346 27.8758 49.8507C27.9526 50.6656 28.0279 51.4811 28.1266 52.2935C28.1953 52.8535 28.2665 53.418 28.4003 53.9645C28.6686 55.0677 29.036 56.1452 29.4982 57.1842C29.9407 58.1928 30.6208 59.083 31.4823 59.7813C32.6117 60.701 33.9354 61.0932 35.3649 61.1658C35.9561 61.1964 36.564 61.1678 37.146 61.0636C38.0711 60.9017 38.986 60.6885 39.8866 60.425C41.7135 59.882 43.2926 58.9443 44.4724 57.4291C45.1439 56.5656 45.6954 55.6314 46.0495 54.6001C46.3415 53.7481 46.6167 52.8876 46.8355 52.0155C47.0084 51.3283 47.0939 50.6195 47.1992 49.9178C47.2689 49.4534 47.3106 48.9846 47.3544 48.5168C47.4256 47.7569 47.4984 46.9976 47.5497 46.2362C47.5854 45.7063 47.5838 45.1738 47.6052 44.6429C47.6118 44.4811 47.6383 44.3203 47.6535 44.159C47.6678 44.0098 47.7441 43.9582 47.8987 43.9607C48.4436 43.9687 48.9895 43.9827 49.5328 43.9587C50.1418 43.9316 50.7563 43.9061 51.3556 43.8069C52.2095 43.6665 53.0566 43.4881 53.8942 43.2724C54.8827 43.018 55.7893 42.5622 56.6618 42.0428C57.6782 41.4382 58.6046 40.7289 59.3565 39.8153C60.0103 39.0184 60.3201 38.0972 60.1624 37.0914ZM58.4266 37.5833C58.393 38.0416 58.1798 38.4343 57.8705 38.7699C56.4109 40.3543 54.58 41.3155 52.4855 41.7888C51.6898 41.9681 50.8687 42.0613 50.0543 42.1354C49.3584 42.1957 48.6593 42.2119 47.9613 42.184C47.4495 42.165 46.9418 42.0498 46.4188 41.9756C46.3664 42.4465 46.3166 42.9369 46.256 43.4262L46.0123 45.3021C45.9386 45.8966 45.8811 46.4932 45.8053 47.0872C45.731 47.6638 45.6384 48.2383 45.5606 48.8148C45.4878 49.3518 45.4344 49.8912 45.3535 50.4272C45.2289 51.2486 45.1098 52.0721 44.947 52.8871C44.7517 53.8613 44.452 54.805 43.9631 55.6835C43.3669 56.7559 42.5214 57.5729 41.4454 58.178C40.3363 58.8021 39.124 59.1267 37.8949 59.3981C37.025 59.5905 36.1286 59.622 35.2474 59.5439C33.7192 59.4077 32.4148 58.764 31.4288 57.5974C30.4877 56.484 29.8507 55.2077 29.6228 53.7631C29.5164 53.0755 29.4331 52.3845 29.373 51.6914C29.3055 50.9212 29.2548 50.1497 29.2209 49.3773C29.1758 48.3975 29.1424 47.4172 29.1207 46.4366C29.0937 45.2314 29.0851 44.0263 29.0678 42.8211L29.0647 42.7751C28.442 43.1427 27.83 43.5454 27.1809 43.877C26.4223 44.2634 25.5918 44.494 24.7399 44.5547C24.0694 44.6048 23.3903 44.6504 22.7228 44.5978C21.6285 44.5112 20.5352 44.3424 19.5554 43.8119C19.1581 43.5965 18.7434 43.3346 18.4697 42.9904C17.8135 42.166 18.1279 41.1241 19.1174 40.6227C19.8011 40.2756 20.5474 40.1309 21.2887 39.9621C21.9338 39.8179 22.5722 39.646 23.202 39.4466C23.8237 39.2463 24.2159 38.7499 24.6031 38.263L25.2166 37.4861C24.9607 37.4596 24.7196 37.4326 24.4785 37.4105C23.7464 37.3424 23.0479 37.144 22.3799 36.8525C21.8081 36.6036 21.7994 36.5765 21.3802 37.0243C20.6802 37.7727 19.9995 38.5385 19.3137 39.2994C18.8091 39.8589 18.3075 40.4219 17.8053 40.9829C17.3078 41.5379 16.8418 42.1244 16.3061 42.6408C15.5104 43.4077 14.5514 43.869 13.4073 43.8169C12.6732 43.7839 12.0011 43.5304 11.3968 43.1162C10.1493 42.2606 9.30889 41.064 8.54375 39.8073C7.56341 38.1969 6.81099 36.4814 6.16693 34.7187C5.72127 33.5006 5.27358 32.2814 4.8844 31.0457C4.46164 29.7028 4.09076 28.3429 3.726 26.9835C3.45353 25.9564 3.20216 24.924 2.97205 23.8869C2.70372 22.7092 2.45543 21.5271 2.22726 20.3411C2.07565 19.5402 1.98764 18.7278 1.86503 17.9213C1.69969 16.8344 1.66917 15.7374 1.7292 14.646C1.78262 13.6627 1.92608 12.682 2.06853 11.7053C2.26592 10.3539 2.71819 9.07859 3.36887 7.87444C3.76721 7.13663 4.2617 6.46594 4.83352 5.84283C5.77215 4.82001 6.90816 4.08069 8.17186 3.5257C9.05503 3.13801 9.98806 2.9046 10.9389 2.72227C12.3501 2.45179 13.7741 2.46231 15.1986 2.49136C15.8213 2.50389 16.4414 2.61558 17.0636 2.67619C18.4031 2.80743 19.7162 3.08492 21.0124 3.42753C21.9571 3.67697 22.8825 4.00005 23.8196 4.28055C23.9138 4.3086 24.0516 4.30609 24.1284 4.25651C25.3983 3.44055 26.7861 2.90209 28.2619 2.59405C28.8221 2.47734 29.4 2.42625 29.9728 2.39018C30.6693 2.34661 31.3713 2.30653 32.0663 2.3461C32.9016 2.39319 33.7329 2.5144 34.5632 2.6266C34.9661 2.6807 35.3593 2.81845 35.7633 2.85601C35.9566 2.87404 36.1616 2.7348 36.3661 2.68821C37.4086 2.45129 38.4464 2.18732 39.4979 1.99999C40.2809 1.86074 41.0806 1.79512 41.8768 1.75004C42.7645 1.69995 43.6589 1.66339 44.5461 1.70546C45.6696 1.76024 46.7858 1.91498 47.8809 2.16779C49.2428 2.47984 50.5493 2.93315 51.7911 3.56227C52.719 4.03211 53.6012 4.57708 54.3953 5.24727C54.9158 5.68705 55.4484 6.12132 55.9185 6.6112C56.4984 7.21527 57.0901 7.81985 57.4539 8.59372C57.7276 9.17726 57.9229 9.78134 57.9768 10.4205C58.044 11.2149 58.1254 12.0123 58.1178 12.8077C58.1106 13.5686 58.0053 14.3289 57.9305 15.0878C57.7606 16.8179 57.3786 18.5104 56.9146 20.1803C56.5265 21.5598 56.0871 22.9248 55.5975 24.2726C55.1503 25.5153 54.6344 26.7355 54.113 27.9507C53.7291 28.8508 53.312 29.7368 52.8625 30.6069C52.0093 32.2528 51.1221 33.8817 50.096 35.432C49.9189 35.7 49.751 35.9745 49.5781 36.2479C50.0258 36.5455 50.533 36.6502 51.0438 36.7043C51.5296 36.7564 52.0251 36.7874 52.5104 36.7518C53.2873 36.6952 54.0616 36.586 54.8339 36.4794C55.599 36.3742 56.3489 36.1598 57.1344 36.2164C57.9188 36.2725 58.48 36.8595 58.4266 37.5833ZM47.2277 35.9038C46.8945 35.4801 46.5546 35.0613 46.2285 34.6326C45.7168 33.9594 45.3489 33.2075 44.9796 32.4522C44.6296 31.7364 44.2002 31.0587 43.8314 30.3509C43.1878 29.1163 42.5326 27.8856 41.9399 26.6268C41.1946 25.0455 40.607 23.4081 40.4218 21.6565C40.3435 20.9152 40.3236 20.1748 40.4757 19.4405C40.7194 18.2679 41.3416 17.3508 42.3876 16.7217C43.3577 16.1382 44.4388 15.9498 45.5463 15.8907C46.2336 15.8541 46.924 15.8842 47.6372 15.8842L47.6133 15.7655C47.1697 14.8524 46.7551 13.9237 46.2697 13.0321C45.585 11.7739 44.7089 10.6394 43.7332 9.58749C43.0103 8.80861 42.2273 8.08582 41.3696 7.44718C40.5261 6.81856 39.6373 6.25707 38.689 5.79775C37.5581 5.25027 36.3804 4.82702 35.1447 4.55704C33.9573 4.29758 32.7622 4.1388 31.5443 4.12577C30.5055 4.11475 29.4732 4.16083 28.4614 4.39175C26.9341 4.73987 25.5371 5.35897 24.3218 6.36175C23.6493 6.91698 23.0485 7.55115 22.5325 8.25011C21.9241 9.07308 21.4331 9.96166 21.0134 10.8933C20.4375 12.1716 20.0423 13.502 19.7721 14.8694C19.6368 15.5511 19.531 16.2388 19.4231 16.9261C19.3855 17.1665 19.3824 17.4124 19.3605 17.6879C19.5483 17.5917 19.6836 17.5176 19.822 17.4515L20.2722 17.2526C21.7949 16.5669 23.3725 16.1256 25.0681 16.1762C25.7885 16.1978 26.4778 16.338 27.1183 16.6486C28.3469 17.2451 29.0657 18.2594 29.3781 19.5432C29.5938 20.4293 29.7414 21.3329 29.8848 22.234C29.9972 22.9378 30.1122 23.649 30.1255 24.3588C30.1443 25.3961 30.0909 26.4355 30.0334 27.4723C29.984 28.354 29.7987 29.2231 29.4839 30.0499C28.9141 31.5491 28.2792 33.0237 27.6861 34.5144C27.4902 35.0067 27.3396 35.5166 27.1544 36.0581C27.4403 36.0581 27.6723 36.0561 27.9043 36.0591C27.9949 36.0606 28.0874 36.0631 28.1749 36.0837C28.8567 36.2419 29.4478 36.546 29.9326 37.0624C30.5792 37.7496 30.9186 38.5515 30.9359 39.4797C30.9455 39.9941 30.8906 40.51 30.8931 41.0244C30.9038 43.4217 30.9221 45.819 30.9425 48.2157C30.946 48.6074 30.9659 48.9996 30.9944 49.3908C31.0539 50.2098 31.1139 51.0293 31.1953 51.8462C31.2523 52.4257 31.3317 53.0043 31.4248 53.5798C31.5565 54.3952 31.9335 55.121 32.3614 55.8148C32.7297 56.4113 33.2084 56.9182 33.8392 57.2679C34.9112 57.8619 36.0655 57.9115 37.229 57.6926C38.015 57.5448 38.7867 57.3074 39.5498 57.0625C40.3003 56.8254 40.9855 56.4221 41.5527 55.8834C42.0874 55.373 42.4669 54.7509 42.7228 54.0642C43.2194 52.7323 43.374 51.3298 43.5795 49.9383C43.6564 49.4174 43.723 48.895 43.7932 48.373C43.8731 47.779 43.954 47.1854 44.0313 46.5919C44.0883 46.1496 44.1402 45.7063 44.1951 45.264C44.2735 44.6289 44.3564 43.9942 44.4312 43.3586C44.4887 42.8672 44.5375 42.3738 44.5884 41.8815C44.654 41.2523 44.7247 40.6232 44.7812 39.9931C44.8249 39.5148 44.8071 39.0279 44.8931 38.5586C45.0513 37.698 45.4644 36.9657 46.2392 36.4924C46.5633 36.2945 46.9291 36.1643 47.2888 35.997L47.2277 35.9038ZM17.9259 32.3715C17.5395 31.4769 17.3067 30.5253 17.2371 29.5555C17.172 28.6414 17.2824 27.7308 17.3775 26.8207C17.4701 25.9391 17.5469 25.0535 17.5739 24.1679C17.6186 22.7124 17.5189 21.2588 17.4482 19.8042C17.4055 18.9381 17.5077 18.0616 17.5861 17.1935C17.6568 16.4116 17.7448 15.6277 17.8949 14.8574C18.1467 13.5646 18.4809 12.2903 18.9561 11.0551C19.4074 9.88402 19.9258 8.74349 20.6578 7.71666C21.1594 7.01241 21.7287 6.35424 22.2756 5.66601L22.1133 5.60941C20.3338 5.05292 18.5252 4.61815 16.6653 4.42831C15.7856 4.33865 14.903 4.28606 14.0208 4.23447C13.7502 4.21844 13.4755 4.2545 13.2038 4.28005C12.5312 4.34316 11.8506 4.3682 11.1887 4.49242C10.0623 4.7033 8.98178 5.05793 7.98109 5.63546C7.08265 6.15388 6.3282 6.82407 5.69634 7.62801C4.99835 8.51558 4.52879 9.51937 4.1915 10.5898C3.79315 11.8525 3.60339 13.1518 3.55201 14.4632C3.50724 15.6127 3.48486 16.7688 3.68632 17.9138C3.8364 18.7663 3.93662 19.6279 4.10196 20.4769C4.32733 21.6344 4.56898 22.7895 4.84828 23.935C5.24764 25.5749 5.64649 27.2174 6.11961 28.8373C6.57239 30.3895 7.08316 31.9278 7.63667 33.4475C8.08945 34.6877 8.61294 35.9048 9.16441 37.106C9.52358 37.8884 9.95855 38.6412 10.4144 39.374C10.8992 40.1519 11.4507 40.8902 12.199 41.4547C13.1433 42.1675 13.8743 42.2782 14.8338 41.4963C15.2449 41.1612 15.5923 40.7475 15.95 40.3532C16.5182 39.7271 17.0666 39.084 17.6324 38.4559C18.3527 37.6555 19.0823 36.8635 19.8062 36.0671C19.9593 35.8988 20.1064 35.7255 20.2554 35.5552L20.0092 35.3423C19.1151 34.5033 18.406 33.492 17.9259 32.3715ZM45.239 8.54464C45.831 9.22217 46.3926 9.92475 46.9225 10.6504C47.9399 12.0574 48.7529 13.5766 49.3517 15.202C49.6167 15.9183 49.8284 16.6415 49.7338 17.4254C49.6681 17.9744 49.6737 18.5314 49.6244 19.0834C49.5832 19.5427 49.5094 19.9995 49.4489 20.4573C49.3583 21.1476 49.227 21.8358 49.1879 22.529C49.1507 23.1887 49.1894 23.8554 49.2316 24.5166C49.2744 25.1883 49.3664 25.857 49.429 26.5276C49.4997 27.288 49.5949 28.0484 49.6167 28.8102C49.6345 29.4358 49.5781 30.0654 49.5226 30.6901C49.4565 31.4424 49.2627 32.1707 48.9737 32.8694C48.7707 33.3613 48.528 33.8382 48.2986 34.3305L48.3907 34.4267L48.5306 34.5334L48.6715 34.285C49.8615 32.441 50.9192 30.5174 51.8369 28.5282C52.424 27.2442 52.9816 25.9472 53.5091 24.6383C54.3353 22.6027 54.989 20.5099 55.4947 18.3756C55.7216 17.4174 55.8951 16.4447 56.0492 15.472C56.1693 14.7116 56.2695 13.9422 56.2919 13.1749C56.3158 12.3609 56.27 11.5405 56.1937 10.7285C56.1367 10.1154 55.9831 9.49833 55.5929 8.99995C54.9656 8.19752 54.2885 7.43015 53.4557 6.82307C52.7546 6.31166 52.0561 5.78723 51.3037 5.35696C50.1107 4.67575 48.8195 4.22194 47.4704 3.91289C46.1538 3.61086 44.8198 3.48062 43.4773 3.45307C42.6857 3.43655 41.8905 3.52019 41.1005 3.59332C40.3847 3.65944 39.6735 3.77214 38.9526 3.86531C39.7259 4.29357 40.4884 4.67425 41.2078 5.12305C42.7203 6.06623 44.0756 7.20125 45.239 8.54464ZM25.589 34.9526C26.0779 33.4134 26.7439 31.9438 27.3889 30.4652C27.9119 29.266 28.1978 28.0028 28.293 26.7055C28.3403 26.0658 28.3271 25.4182 28.295 24.7765C28.2632 24.0627 28.1966 23.3508 28.0956 22.6432C27.9603 21.7411 27.8061 20.8385 27.5894 19.9529C27.3544 18.9947 26.7617 18.3275 25.7462 18.0816C25.1276 17.9318 24.513 17.9379 23.8878 18.035C22.3606 18.2719 20.9626 18.8259 19.6602 19.6374C19.3982 19.8007 19.2542 19.9324 19.2995 20.3026C19.3951 21.0865 19.416 21.8829 19.4124 22.6743C19.4074 23.7943 19.359 24.9143 19.3158 26.0338C19.3015 26.3984 19.2481 26.7611 19.2084 27.1242C19.1474 27.6802 19.0299 28.2357 19.0334 28.7907C19.037 29.3627 19.0965 29.9482 19.2374 30.5022C19.6851 32.2588 20.6334 33.6964 22.1876 34.7107C23.1435 35.3343 24.2012 35.6489 25.3621 35.7085C25.441 35.446 25.5112 35.1981 25.589 34.9526ZM23.7647 19.8823C23.5602 19.4596 23.6772 19.1094 24.1513 18.9472C24.2668 18.9071 24.3859 18.8645 24.5059 18.853C24.6708 18.837 24.8386 18.849 25.0055 18.849C25.6068 18.852 26.1853 18.9346 26.6818 19.3113C27.0003 19.5527 27.0857 19.8733 26.8797 20.2024C26.5872 20.6692 26.141 20.9036 25.5931 20.9487C24.7298 21.0193 24.1239 20.6231 23.7647 19.8823ZM47.6957 19.728C47.7649 19.165 47.8204 18.6005 47.8911 18.0375C47.9196 17.8111 47.7985 17.75 47.6057 17.7445C46.9993 17.728 46.3929 17.7069 45.7864 17.6959C45.1027 17.6839 44.4373 17.7921 43.8044 18.0481C43.1023 18.3326 42.5677 18.7884 42.3494 19.5407C42.1897 20.0955 42.1391 20.6752 42.2004 21.2487C42.2853 22.1356 42.4894 23.0074 42.8073 23.8414C43.2316 24.9538 43.6757 26.0658 44.2063 27.1317C44.9252 28.5748 45.7386 29.9718 46.5022 31.3928C46.7062 31.772 46.8777 32.1677 47.0903 32.6105C47.5191 31.7302 47.7533 30.7704 47.7777 29.7945C47.7985 28.988 47.7329 28.1781 47.6851 27.3711C47.655 26.8773 47.5843 26.3864 47.5355 25.8935C47.4673 25.2068 47.364 24.5206 47.3483 23.8323C47.3325 23.1326 47.3829 22.4289 47.4439 21.7301C47.5014 21.0599 47.6138 20.3952 47.6957 19.728ZM46.3278 19.1861C46.1024 19.7987 45.6206 20.1443 44.9959 20.246C44.4134 20.3401 43.9031 20.1283 43.5236 19.6709C43.2534 19.3454 43.3567 18.9597 43.7617 18.7398C44.2267 18.4863 44.7379 18.4222 45.3408 18.3836C45.5046 18.4132 45.7513 18.4377 45.9859 18.5039C46.3262 18.5985 46.4519 18.8505 46.3278 19.1861ZM28.3072 38.0497C27.974 37.7817 27.5334 37.7661 27.2165 38.0602C26.8232 38.4258 26.4773 38.8441 26.1313 39.2563C25.732 39.7326 25.3576 40.228 24.8422 40.5972C24.0923 41.1336 23.2183 41.356 22.3397 41.5664C21.6412 41.7337 20.9397 41.889 20.2391 42.0498L20.2305 42.1389C20.4386 42.2336 20.64 42.3518 20.8567 42.4194C21.9251 42.7525 23.0118 42.9183 24.1407 42.8241C24.9557 42.756 25.732 42.5812 26.4676 42.2376C27.48 41.7653 28.2589 41.0169 28.9213 40.1464C29.0322 40.0011 29.0825 39.7862 29.0958 39.5989C29.141 38.9372 28.7997 38.4454 28.3072 38.0497ZM54.6349 38.3131C53.7752 38.4038 52.9144 38.5 52.0521 38.5485C51.6359 38.5721 51.2137 38.4939 50.7935 38.4604C50.0889 38.4043 49.401 38.25 48.8053 37.8793C48.4604 37.6655 48.174 37.6414 47.8077 37.7626C47.2847 37.9359 46.8579 38.1994 46.7317 38.7574C46.6457 39.1346 46.6147 39.5253 46.5801 39.9115C46.5735 39.9796 46.66 40.1048 46.7261 40.1218C47.1295 40.2265 47.535 40.3502 47.9476 40.3868C48.4543 40.4319 48.9701 40.4174 49.4804 40.3923C50.0314 40.3653 50.5859 40.3302 51.1287 40.2401C52.4082 40.0287 53.646 39.6841 54.7453 38.9698C55.1416 38.7118 55.5344 38.4484 55.9281 38.1874L55.8956 38.1323C55.4754 38.1939 55.0572 38.269 54.6349 38.3131Z" fill="url(#paint0_linear_34_70)"/>
<defs>
<linearGradient id="paint0_linear_34_70" x1="0" y1="0.133667" x2="53.1258" y2="67.0172" gradientUnits="userSpaceOnUse">
<stop stop-color="#A4DAF9"/>
<stop offset="0.0001" stop-color="#A4DAF9"/>
<stop offset="1" stop-color="#1B4380"/>
</linearGradient>
</defs>
</svg>
