<svg width="25" height="22" viewBox="0 0 25 22" fill="none" xmlns="http://www.w3.org/2000/svg">
<path d="M12.205 20.6915C9.67995 18.2488 6.25565 16.6665 2.53424 16.223C2.11066 16.1818 1.71946 16.0042 1.43614 15.7245C1.15281 15.4448 0.997446 15.0827 1.00003 14.7083V2.51456C1.00002 2.29577 1.05394 2.07958 1.15809 1.88085C1.26225 1.68212 1.41416 1.50557 1.60337 1.36336C1.78926 1.22373 2.00682 1.12045 2.24162 1.06038C2.47642 1.00032 2.72307 0.984834 2.9652 1.01496C6.5237 1.53393 9.77903 3.09225 12.205 5.43802V20.6915Z" stroke="url(#paint0_linear_43_258)" stroke-width="1.71429" stroke-linecap="round" stroke-linejoin="round"/>
<path d="M12.205 20.6915C14.73 18.2488 18.1543 16.6665 21.8757 16.223C22.2992 16.1818 22.6904 16.0042 22.9738 15.7245C23.2571 15.4448 23.4125 15.0827 23.4099 14.7083V2.51456C23.4099 2.29577 23.356 2.07958 23.2518 1.88085C23.1477 1.68212 22.9958 1.50557 22.8065 1.36336C22.6207 1.22373 22.4031 1.12045 22.1683 1.06038C21.9335 1.00032 21.6868 0.984834 21.4447 1.01496C17.8862 1.53393 14.6309 3.09225 12.205 5.43802V20.6915Z" stroke="url(#paint1_linear_43_258)" stroke-width="1.71429" stroke-linecap="round" stroke-linejoin="round"/>
<defs>
<linearGradient id="paint0_linear_43_258" x1="1" y1="1" x2="17.7316" y2="13.1536" gradientUnits="userSpaceOnUse">
<stop stop-color="#A4DAF9"/>
<stop offset="0.0001" stop-color="#A4DAF9"/>
<stop offset="1" stop-color="#1B4380"/>
</linearGradient>
<linearGradient id="paint1_linear_43_258" x1="12.205" y1="1" x2="28.9365" y2="13.1536" gradientUnits="userSpaceOnUse">
<stop stop-color="#A4DAF9"/>
<stop offset="0.0001" stop-color="#A4DAF9"/>
<stop offset="1" stop-color="#1B4380"/>
</linearGradient>
</defs>
</svg>
