<svg width="30" height="30" viewBox="0 0 30 30" fill="none" xmlns="http://www.w3.org/2000/svg">
<path fill-rule="evenodd" clip-rule="evenodd" d="M19.5 3C18.6716 3 18 2.32843 18 1.5C18 0.671573 18.6716 0 19.5 0H28.5C29.3284 0 30 0.671573 30 1.5V10.5C30 11.3284 29.3284 12 28.5 12C27.6716 12 27 11.3284 27 10.5V5.12132L13.0607 19.0607C12.4749 19.6464 11.5251 19.6464 10.9393 19.0607C10.3536 18.4749 10.3536 17.5251 10.9393 16.9393L24.8787 3H19.5ZM4.5 7.5C4.10217 7.5 3.72064 7.65804 3.43934 7.93934C3.15804 8.22064 3 8.60217 3 9V25.5C3 25.8978 3.15804 26.2794 3.43934 26.5607C3.72064 26.842 4.10218 27 4.5 27H21C21.3978 27 21.7794 26.842 22.0607 26.5607C22.342 26.2794 22.5 25.8978 22.5 25.5V16.5C22.5 15.6716 23.1716 15 24 15C24.8284 15 25.5 15.6716 25.5 16.5V25.5C25.5 26.6935 25.0259 27.8381 24.182 28.682C23.3381 29.5259 22.1935 30 21 30H4.5C3.30653 30 2.16193 29.5259 1.31802 28.682C0.474106 27.8381 0 26.6935 0 25.5V9C0 7.80653 0.474105 6.66193 1.31802 5.81802C2.16193 4.97411 3.30653 4.5 4.5 4.5H13.5C14.3284 4.5 15 5.17157 15 6C15 6.82843 14.3284 7.5 13.5 7.5H4.5Z" fill="#C0C5CC"/>
</svg>
