<svg width="137" height="24" viewBox="0 0 137 24" fill="none" xmlns="http://www.w3.org/2000/svg">
<path d="M12.384 23.04C10.688 23.04 9.136 22.768 7.728 22.224C6.32 21.68 5.104 20.912 4.08 19.92C3.056 18.928 2.256 17.76 1.68 16.416C1.12 15.056 0.84 13.568 0.84 11.952C0.84 10.32 1.12 8.832 1.68 7.488C2.24 6.128 3.032 4.952 4.056 3.96C5.096 2.968 6.32 2.2 7.728 1.656C9.136 1.112 10.688 0.839999 12.384 0.839999C13.92 0.839999 15.336 1.112 16.632 1.656C17.928 2.2 19.048 2.968 19.992 3.96C20.936 4.952 21.664 6.128 22.176 7.488C22.704 8.832 22.968 10.32 22.968 11.952H20.616C20.616 10.656 20.408 9.472 19.992 8.4C19.592 7.328 19.024 6.4 18.288 5.616C17.568 4.816 16.704 4.2 15.696 3.768C14.688 3.336 13.584 3.12 12.384 3.12C11.024 3.12 9.784 3.336 8.664 3.768C7.544 4.2 6.576 4.816 5.76 5.616C4.944 6.4 4.312 7.328 3.864 8.4C3.416 9.472 3.192 10.656 3.192 11.952C3.192 13.248 3.416 14.432 3.864 15.504C4.312 16.576 4.944 17.504 5.76 18.288C6.576 19.072 7.544 19.68 8.664 20.112C9.784 20.544 11.024 20.76 12.384 20.76C12.944 20.76 13.544 20.672 14.184 20.496C14.824 20.336 15.36 20.12 15.792 19.848L17.088 21.696C16.416 22.096 15.64 22.416 14.76 22.656C13.88 22.912 13.088 23.04 12.384 23.04ZM10.944 17.664C9.968 17.664 9.104 17.424 8.352 16.944C7.6 16.448 7.008 15.768 6.576 14.904C6.16 14.04 5.952 13.056 5.952 11.952C5.952 10.832 6.16 9.848 6.576 9C7.008 8.152 7.6 7.488 8.352 7.008C9.104 6.512 9.968 6.264 10.944 6.264C11.952 6.264 12.84 6.512 13.608 7.008C14.392 7.488 15 8.152 15.432 9C15.88 9.848 16.104 10.832 16.104 11.952C16.104 13.056 15.88 14.04 15.432 14.904C15 15.768 14.392 16.448 13.608 16.944C12.84 17.424 11.952 17.664 10.944 17.664ZM11.928 15.024C12.472 15.024 12.952 14.896 13.368 14.64C13.784 14.368 14.112 14 14.352 13.536C14.592 13.072 14.712 12.544 14.712 11.952C14.712 11.344 14.584 10.816 14.328 10.368C14.072 9.904 13.728 9.544 13.296 9.288C12.864 9.016 12.36 8.88 11.784 8.88C11.224 8.88 10.728 9.008 10.296 9.264C9.88 9.52 9.544 9.88 9.288 10.344C9.048 10.792 8.928 11.32 8.928 11.928C8.928 12.52 9.056 13.056 9.312 13.536C9.584 14 9.936 14.368 10.368 14.64C10.816 14.896 11.336 15.024 11.928 15.024ZM18.048 18.36C17.408 18.36 16.832 18.232 16.32 17.976C15.824 17.72 15.432 17.368 15.144 16.92C14.872 16.456 14.736 15.92 14.736 15.312L17.232 15.168C17.232 15.568 17.328 15.856 17.52 16.032C17.712 16.192 17.96 16.272 18.264 16.272C18.728 16.272 19.136 16.088 19.488 15.72C19.84 15.352 20.112 14.848 20.304 14.208C20.512 13.552 20.616 12.8 20.616 11.952H22.968C22.968 13.2 22.752 14.304 22.32 15.264C21.904 16.224 21.328 16.984 20.592 17.544C19.856 18.088 19.008 18.36 18.048 18.36ZM14.736 15.312L14.592 6.504H17.232V15.168L14.736 15.312ZM34.2593 12.432V9.408H37.7873C38.5233 9.408 39.1233 9.168 39.5873 8.688C40.0673 8.208 40.3073 7.576 40.3073 6.792C40.3073 6.28 40.1873 5.832 39.9473 5.448C39.7073 5.048 39.3793 4.736 38.9633 4.512C38.5473 4.288 38.0673 4.184 37.5233 4.2H34.2593V1.2L37.5953 1.176C38.7793 1.16 39.8273 1.4 40.7393 1.896C41.6513 2.376 42.3633 3.04 42.8753 3.888C43.3873 4.72 43.6432 5.688 43.6432 6.792C43.6432 7.88 43.3953 8.848 42.8993 9.696C42.4033 10.544 41.7233 11.216 40.8593 11.712C39.9953 12.192 38.9953 12.432 37.8593 12.432H34.2593ZM31.3553 18V1.2H34.6433V18H31.3553ZM47.5453 11.688C47.5453 10.392 47.7933 9.32 48.2893 8.472C48.8013 7.624 49.4493 6.992 50.2333 6.576C51.0333 6.16 51.8653 5.952 52.7293 5.952V9.024C51.9933 9.024 51.2973 9.112 50.6413 9.288C50.0013 9.464 49.4813 9.752 49.0813 10.152C48.6813 10.552 48.4813 11.064 48.4813 11.688H47.5453ZM45.3133 18V6H48.4813V18H45.3133ZM60.2871 18.288C59.0551 18.288 57.9591 18.024 56.9991 17.496C56.0551 16.952 55.3111 16.208 54.7671 15.264C54.2231 14.32 53.9511 13.232 53.9511 12C53.9511 10.768 54.2151 9.68 54.7431 8.736C55.2871 7.792 56.0311 7.056 56.9751 6.528C57.9351 5.984 59.0231 5.712 60.2391 5.712C61.4871 5.712 62.5831 5.984 63.5271 6.528C64.4711 7.056 65.2071 7.792 65.7351 8.736C66.2791 9.68 66.5511 10.768 66.5511 12C66.5511 13.232 66.2791 14.32 65.7351 15.264C65.2071 16.208 64.4711 16.952 63.5271 17.496C62.5991 18.024 61.5191 18.288 60.2871 18.288ZM60.2871 15.192C60.8471 15.192 61.3351 15.056 61.7511 14.784C62.1831 14.512 62.5191 14.136 62.7591 13.656C62.9991 13.176 63.1191 12.624 63.1191 12C63.1191 11.376 62.9911 10.824 62.7351 10.344C62.4951 9.864 62.1591 9.488 61.7271 9.216C61.2951 8.944 60.7991 8.808 60.2391 8.808C59.6951 8.808 59.2071 8.944 58.7751 9.216C58.3431 9.488 58.0071 9.864 57.7671 10.344C57.5271 10.824 57.4071 11.376 57.4071 12C57.4071 12.624 57.5271 13.176 57.7671 13.656C58.0071 14.136 58.3431 14.512 58.7751 14.784C59.2231 15.056 59.7271 15.192 60.2871 15.192ZM71.2451 4.128C70.7331 4.128 70.2931 3.944 69.9251 3.576C69.5571 3.208 69.3731 2.768 69.3731 2.256C69.3731 1.744 69.5571 1.304 69.9251 0.935999C70.2931 0.567999 70.7331 0.383999 71.2451 0.383999C71.7571 0.383999 72.1971 0.567999 72.5651 0.935999C72.9331 1.304 73.1171 1.744 73.1171 2.256C73.1171 2.768 72.9331 3.208 72.5651 3.576C72.1971 3.944 71.7571 4.128 71.2451 4.128ZM68.5811 23.16C67.6691 23.16 66.7971 22.912 65.9651 22.416L67.2371 19.8C67.4931 19.928 67.7251 20.024 67.9331 20.088C68.1571 20.168 68.3491 20.208 68.5091 20.208C69.2771 20.208 69.6611 19.704 69.6611 18.696V6H72.8291V18.912C72.8291 20.272 72.4611 21.32 71.7251 22.056C70.9891 22.792 69.9411 23.16 68.5811 23.16ZM81.4215 18.288C80.2375 18.288 79.1895 18.024 78.2775 17.496C77.3655 16.952 76.6455 16.208 76.1175 15.264C75.6055 14.32 75.3495 13.232 75.3495 12C75.3495 10.768 75.6135 9.68 76.1415 8.736C76.6855 7.792 77.4215 7.056 78.3495 6.528C79.2935 5.984 80.3735 5.712 81.5895 5.712C82.6295 5.712 83.5895 5.992 84.4695 6.552C85.3655 7.096 86.0855 7.904 86.6295 8.976C87.1735 10.032 87.4455 11.32 87.4455 12.84H84.2295C84.2455 11.784 84.1335 10.944 83.8935 10.32C83.6695 9.68 83.3495 9.224 82.9335 8.952C82.5175 8.664 82.0295 8.52 81.4695 8.52C80.8775 8.52 80.3735 8.648 79.9575 8.904C79.5575 9.16 79.2535 9.552 79.0455 10.08C78.8375 10.592 78.7335 11.264 78.7335 12.096C78.7335 12.816 78.8695 13.416 79.1415 13.896C79.4135 14.376 79.7815 14.744 80.2455 15C80.7095 15.24 81.2135 15.36 81.7575 15.36C82.3815 15.36 82.8855 15.224 83.2695 14.952C83.6695 14.68 83.9735 14.328 84.1815 13.896L87.1575 15.048C86.8055 15.72 86.3655 16.304 85.8375 16.8C85.3095 17.28 84.6775 17.648 83.9415 17.904C83.2055 18.16 82.3655 18.288 81.4215 18.288ZM77.4135 12.84L77.4375 10.368H85.8855V12.84H77.4135ZM98.037 18L97.869 15.768V1.2H101.037V18H98.037ZM94.269 18.288C93.165 18.288 92.205 18.032 91.389 17.52C90.589 17.008 89.965 16.28 89.517 15.336C89.069 14.392 88.845 13.28 88.845 12C88.845 10.704 89.069 9.592 89.517 8.664C89.965 7.72 90.589 6.992 91.389 6.48C92.205 5.968 93.165 5.712 94.269 5.712C95.277 5.712 96.125 5.968 96.813 6.48C97.517 6.992 98.053 7.72 98.421 8.664C98.789 9.592 98.973 10.704 98.973 12C98.973 13.28 98.789 14.392 98.421 15.336C98.053 16.28 97.517 17.008 96.813 17.52C96.125 18.032 95.277 18.288 94.269 18.288ZM95.085 15.384C95.629 15.384 96.109 15.24 96.525 14.952C96.957 14.664 97.293 14.264 97.533 13.752C97.773 13.24 97.893 12.656 97.893 12C97.893 11.344 97.773 10.76 97.533 10.248C97.293 9.736 96.957 9.344 96.525 9.072C96.109 8.784 95.621 8.64 95.061 8.64C94.485 8.64 93.981 8.784 93.549 9.072C93.117 9.344 92.773 9.736 92.517 10.248C92.261 10.76 92.133 11.344 92.133 12C92.133 12.656 92.261 13.24 92.517 13.752C92.773 14.264 93.117 14.664 93.549 14.952C93.997 15.24 94.509 15.384 95.085 15.384ZM111.086 18L111.014 11.928C111.014 11.208 110.934 10.6 110.774 10.104C110.63 9.592 110.39 9.208 110.054 8.952C109.734 8.68 109.302 8.544 108.758 8.544C108.278 8.544 107.846 8.648 107.462 8.856C107.078 9.064 106.75 9.4 106.478 9.864L103.646 8.904C103.87 8.392 104.19 7.896 104.606 7.416C105.038 6.92 105.598 6.512 106.286 6.192C106.99 5.872 107.838 5.712 108.83 5.712C110.03 5.712 111.03 5.928 111.83 6.36C112.63 6.792 113.23 7.432 113.63 8.28C114.03 9.112 114.23 10.136 114.23 11.352V18H111.086ZM107.846 18.288C106.406 18.288 105.286 17.968 104.486 17.328C103.702 16.688 103.31 15.784 103.31 14.616C103.31 13.336 103.734 12.376 104.582 11.736C105.446 11.08 106.654 10.752 108.206 10.752H111.662L111.71 13.104H109.31C108.27 13.104 107.55 13.232 107.15 13.488C106.75 13.728 106.55 14.072 106.55 14.52C106.55 14.872 106.71 15.152 107.03 15.36C107.35 15.552 107.798 15.648 108.374 15.648C108.886 15.648 109.334 15.528 109.718 15.288C110.118 15.032 110.43 14.712 110.654 14.328C110.878 13.928 110.99 13.52 110.99 13.104H111.878C111.878 14.736 111.558 16.008 110.918 16.92C110.294 17.832 109.27 18.288 107.846 18.288ZM121.935 18.288C120.607 18.288 119.599 17.96 118.911 17.304C118.239 16.648 117.903 15.712 117.903 14.496V2.256H121.071V13.8C121.071 14.312 121.183 14.704 121.407 14.976C121.631 15.232 121.959 15.36 122.391 15.36C122.551 15.36 122.727 15.328 122.919 15.264C123.111 15.184 123.311 15.072 123.519 14.928L124.623 17.304C124.239 17.592 123.807 17.824 123.327 18C122.863 18.192 122.399 18.288 121.935 18.288ZM115.959 8.688V6H124.071V8.688H115.959ZM133.821 18L133.749 11.928C133.749 11.208 133.669 10.6 133.509 10.104C133.365 9.592 133.125 9.208 132.789 8.952C132.469 8.68 132.037 8.544 131.493 8.544C131.013 8.544 130.581 8.648 130.197 8.856C129.813 9.064 129.485 9.4 129.213 9.864L126.381 8.904C126.605 8.392 126.925 7.896 127.341 7.416C127.773 6.92 128.333 6.512 129.021 6.192C129.725 5.872 130.573 5.712 131.565 5.712C132.765 5.712 133.765 5.928 134.565 6.36C135.365 6.792 135.965 7.432 136.365 8.28C136.765 9.112 136.965 10.136 136.965 11.352V18H133.821ZM130.581 18.288C129.141 18.288 128.021 17.968 127.221 17.328C126.437 16.688 126.045 15.784 126.045 14.616C126.045 13.336 126.469 12.376 127.317 11.736C128.181 11.08 129.389 10.752 130.941 10.752H134.397L134.445 13.104H132.045C131.005 13.104 130.285 13.232 129.885 13.488C129.485 13.728 129.285 14.072 129.285 14.52C129.285 14.872 129.445 15.152 129.765 15.36C130.085 15.552 130.533 15.648 131.109 15.648C131.621 15.648 132.069 15.528 132.453 15.288C132.853 15.032 133.165 14.712 133.389 14.328C133.613 13.928 133.725 13.52 133.725 13.104H134.613C134.613 14.736 134.293 16.008 133.653 16.92C133.029 17.832 132.005 18.288 130.581 18.288Z" fill="url(#paint0_linear_42_136)"/>
<defs>
<linearGradient id="paint0_linear_42_136" x1="0" y1="-1" x2="4.80041" y2="37.7175" gradientUnits="userSpaceOnUse">
<stop stop-color="#A4DAF9"/>
<stop offset="0.0001" stop-color="#A4DAF9"/>
<stop offset="1" stop-color="#1B4380"/>
</linearGradient>
</defs>
</svg>
