<svg width="46" height="62" viewBox="0 0 46 62" fill="none" xmlns="http://www.w3.org/2000/svg">
<path d="M14.7259 47.341C5.19344 49.9632 20.5257 55.3802 32.6638 50.26C30.6756 49.4991 29.2496 48.6213 29.2496 48.6213C23.8372 49.6287 21.3264 49.7079 16.4132 49.1553C12.3582 48.6981 14.7259 47.341 14.7259 47.341ZM31.2105 42.2258C24.0363 43.5848 19.8925 43.5413 14.6439 43.0082C10.5855 42.595 13.2423 40.6585 13.2423 40.6585C2.74377 44.0895 19.0868 47.9826 33.76 43.7569C32.2004 43.2161 31.2105 42.2258 31.2105 42.2258ZM36.8325 12.6029C36.833 12.6029 15.6085 17.8203 25.7449 29.3213C28.737 32.7127 24.9602 35.7618 24.9602 35.7618C24.9602 35.7618 32.5541 31.9029 29.0673 27.0684C25.8095 22.562 23.3122 20.3232 36.8325 12.6029ZM41.7984 52.2846C41.7984 52.2846 43.5513 53.7077 39.8673 54.8075C32.863 56.8966 10.7087 57.5265 4.55519 54.8911C2.34493 53.9434 6.49179 52.6294 7.79659 52.3521C9.15702 52.0621 9.93384 52.1149 9.93384 52.1149C7.47424 50.4097 -5.96667 55.4648 3.10834 56.9147C27.8539 60.8641 48.2162 55.1361 41.7984 52.2846ZM33.2936 37.4509C34.4832 36.6518 36.1263 35.9579 36.1263 35.9579C36.1263 35.9579 31.4454 36.7819 26.782 37.1678C21.0731 37.6392 14.9494 37.7321 11.8754 37.3272C4.59791 36.3692 15.8653 33.7338 15.8653 33.7338C15.8653 33.7338 11.4885 33.4424 6.10834 36.0049C-0.25524 39.0344 21.8489 40.4154 33.2936 37.4509ZM36.0796 44.8573C36.0259 44.9991 35.8471 45.1585 35.8471 45.1585C51.3801 41.1382 45.6691 30.9869 38.2421 33.5563C37.5905 33.7832 37.2488 34.3109 37.2488 34.3109C37.2488 34.3109 37.6605 34.1475 38.5789 33.9588C42.3334 33.1885 47.7125 38.9072 36.0796 44.8573ZM22.9531 33.6233C20.6613 28.5232 12.8901 24.0613 22.9565 16.2339C35.5084 6.47929 29.0678 0.133667 29.0678 0.133667C31.6655 10.2116 19.9034 13.2558 15.6577 19.5319C12.7665 23.8085 17.0767 28.4039 22.9531 33.6233ZM36.4998 58.9295C26.9698 60.6959 15.2146 60.49 8.2446 59.3569C8.2446 59.3569 9.67209 60.5208 17.0092 60.9859C28.1728 61.6886 45.3205 60.5947 45.7258 55.3934C45.7263 55.3934 44.946 57.3651 36.4998 58.9295Z" fill="url(#paint0_linear_34_58)"/>
<defs>
<linearGradient id="paint0_linear_34_58" x1="0" y1="0.133667" x2="54.4861" y2="52.2344" gradientUnits="userSpaceOnUse">
<stop stop-color="#A4DAF9"/>
<stop offset="0.0001" stop-color="#A4DAF9"/>
<stop offset="1" stop-color="#1B4380"/>
</linearGradient>
</defs>
</svg>
