<svg width="62" height="62" viewBox="0 0 62 62" fill="none" xmlns="http://www.w3.org/2000/svg">
<path d="M0 30.6453V61.1671H62V0.123413H0V30.6453ZM49.9621 28.2035C51.4471 28.5428 52.7967 29.3075 53.8408 30.4011C54.4156 30.9903 54.9153 31.6462 55.3288 32.3545C55.3288 32.4326 52.6504 34.2151 51.0186 35.2113C50.959 35.2504 50.721 34.9965 50.4581 34.6107C50.1602 34.1046 49.7369 33.681 49.2278 33.3796C48.7187 33.0781 48.1403 32.9086 47.5466 32.8868C45.6667 32.7598 44.4565 33.7316 44.4664 35.3285C44.4509 35.7261 44.5433 36.1206 44.7342 36.4713C45.1459 37.3161 45.9147 37.8191 48.3253 38.8447C52.7645 40.7248 54.6642 41.9652 55.8446 43.7281C57.164 45.6815 57.4566 48.8363 56.5638 51.1706C55.5718 53.71 53.1414 55.4339 49.7042 56.0053C48.1342 56.1823 46.548 56.1659 44.9822 55.9564C42.5926 55.5748 40.3882 54.4545 38.688 52.7577C38.1176 52.1375 37.0066 50.5211 37.076 50.4039C37.2571 50.2715 37.4477 50.1524 37.6464 50.0474L39.928 48.7582L41.7086 47.7424L42.0806 48.2845C42.7084 49.1687 43.5074 49.9221 44.4317 50.5016C46.4157 51.5271 49.1238 51.3855 50.463 50.1988C50.9127 49.7639 51.1932 49.1876 51.2557 48.5701C51.3183 47.9526 51.1589 47.3331 50.8053 46.8194C50.3093 46.1406 49.3173 45.5692 46.5446 44.3777C43.3454 43.02 41.9666 42.1801 40.7067 40.842C39.9202 39.959 39.3396 38.9172 39.0054 37.7898C38.7562 36.5018 38.7194 35.1826 38.8963 33.883C39.556 30.8406 41.8723 28.7163 45.255 28.0863C46.8216 27.8955 48.4085 27.9383 49.9621 28.2133V28.2035ZM35.4094 30.7625V33.2628H27.3594V55.8392H21.6504V33.2579H13.5805V30.8162C13.5588 29.9756 13.582 29.1345 13.6499 28.2963C13.6797 28.2572 18.6099 28.2377 24.5619 28.2475H35.3797L35.4094 30.7625Z" fill="url(#paint0_linear_34_74)"/>
<defs>
<linearGradient id="paint0_linear_34_74" x1="0" y1="0.123413" x2="52.7518" y2="68.5185" gradientUnits="userSpaceOnUse">
<stop stop-color="#A4DAF9"/>
<stop offset="0.0001" stop-color="#A4DAF9"/>
<stop offset="1" stop-color="#1B4380"/>
</linearGradient>
</defs>
</svg>
