<svg width="62" height="62" viewBox="0 0 62 62" fill="none" xmlns="http://www.w3.org/2000/svg">
<path d="M0 0.123413V61.1671H62V0.123413H0ZM32.795 52.139C31.8799 53.9698 30.133 55.1726 28.1088 55.7533C24.9984 56.4565 22.0234 56.0556 19.8102 54.7478C18.3292 53.8531 17.1725 52.476 16.3873 50.8893L21.1093 48.0422C21.1504 48.0593 21.2744 48.2801 21.4401 48.5653C22.0422 49.5586 22.5616 50.2618 23.5823 50.7555C24.5852 51.0925 26.787 51.3078 27.6371 49.5703C28.1564 48.6864 27.9913 45.8451 27.9913 42.7016C27.9908 37.762 28.0141 32.8428 28.0141 27.9593H33.8217C33.8217 33.3312 33.8515 38.4188 33.8217 43.6608C33.8341 46.8741 34.1174 49.7388 32.795 52.139ZM56.8877 50.5235C54.869 57.3223 43.6138 57.5431 39.1161 53.0512C38.1657 51.994 37.57 51.4416 37.0031 50.2212C39.3933 48.8675 39.3933 48.8675 41.7191 47.5427C42.9824 49.4545 44.1505 50.506 46.252 50.9362C49.103 51.279 51.9714 50.3145 51.3281 47.3331C50.6669 44.8982 45.4901 44.3059 41.9671 41.702C38.3904 39.3369 37.5522 33.59 40.4915 30.3064C41.4711 29.0918 43.1416 28.1854 44.8945 27.7498L46.7237 27.5169C50.2359 27.4471 52.4312 28.3603 54.0427 30.132C54.4911 30.5793 54.8571 31.0618 55.5416 32.1074C53.6707 33.2814 53.6766 33.2701 50.9967 34.9784C50.4244 33.7644 49.4745 33.0025 48.4706 32.6714C46.9122 32.2065 44.947 32.712 44.5393 34.3333C44.398 34.8329 44.4272 35.2978 44.6519 36.1231C45.2833 37.5408 47.4022 38.1571 49.3029 39.017C54.7743 41.2019 56.6219 43.5445 57.0762 46.333C57.5137 48.7337 56.9706 50.2911 56.8877 50.5235Z" fill="url(#paint0_linear_34_56)"/>
<defs>
<linearGradient id="paint0_linear_34_56" x1="0" y1="0.123413" x2="52.7518" y2="68.5185" gradientUnits="userSpaceOnUse">
<stop stop-color="#A4DAF9"/>
<stop offset="0.0001" stop-color="#A4DAF9"/>
<stop offset="1" stop-color="#1B4380"/>
</linearGradient>
</defs>
</svg>
