<svg width="32" height="32" viewBox="0 0 32 32" fill="none" xmlns="http://www.w3.org/2000/svg">
<g clip-path="url(#clip0_656_12)">
<path d="M5.4999 0.0175068C4.9149 0.0750068 4.5549 0.150007 4.0874 0.302507C3.2349 0.582507 2.4499 1.07501 1.7624 1.76251C0.789902 2.73751 0.239902 3.84001 0.0449023 5.21251C-0.00259766 5.54251 -0.00259766 26.4575 0.0449023 26.7875C0.239902 28.1575 0.792402 29.27 1.7599 30.24C2.7299 31.2075 3.8424 31.76 5.2124 31.955C5.5424 32.0025 26.4574 32.0025 26.7874 31.955C28.1599 31.76 29.2624 31.21 30.2374 30.2375C31.2099 29.2625 31.7599 28.16 31.9549 26.7875C32.0024 26.4575 32.0024 5.54251 31.9549 5.21251C31.8224 4.27501 31.5274 3.47501 31.0524 2.76251C30.7924 2.36751 30.5799 2.10751 30.2549 1.78251C29.2949 0.817507 28.2499 0.282507 26.8874 0.0550068C26.6574 0.0175068 25.8149 0.0125068 16.1124 0.0100068C10.3224 0.0100068 5.5474 0.0125068 5.4999 0.0175068ZM8.0424 5.43501C8.8374 5.59751 9.4624 6.06751 9.7999 6.76251C10.1099 7.40001 10.1424 8.17251 9.8824 8.82001C9.6674 9.36501 9.1699 9.87251 8.6149 10.125C7.8699 10.4625 6.7874 10.4575 6.0524 10.11C5.7499 9.96751 5.5574 9.82751 5.3249 9.58501C5.0099 9.25501 4.8249 8.92501 4.7199 8.50751C4.6724 8.32251 4.6624 8.22251 4.6624 7.86251C4.6649 7.50001 4.6724 7.40751 4.7224 7.22501C4.8374 6.80001 5.0324 6.46251 5.3474 6.14751C5.7349 5.76001 6.2399 5.50751 6.7749 5.42751C6.8774 5.41251 6.9899 5.39501 7.0249 5.39001C7.1499 5.36751 7.8674 5.40001 8.0424 5.43501ZM22.4374 12.06C23.0799 12.155 23.5449 12.295 24.0624 12.55C25.4649 13.235 26.3924 14.4425 26.7974 16.1075C27.0624 17.195 27.0799 17.5825 27.0699 22.8375L27.0624 26.7875L24.6574 26.795L22.2524 26.8L22.2424 22.5825C22.2349 17.955 22.2424 18.215 22.0874 17.6C21.8274 16.5825 21.2449 15.9925 20.3449 15.835C20.0249 15.78 19.4199 15.8 19.1399 15.875C18.7299 15.985 18.3999 16.18 18.0674 16.5075C17.8049 16.7675 17.6324 17 17.4749 17.305C17.3174 17.6075 17.2574 17.84 17.2249 18.26C17.2099 18.46 17.1999 20.195 17.1999 22.6925V26.8H14.8024H12.4049L12.4099 19.5625L12.4124 12.325H14.8049H17.1999L17.2049 13.3425L17.2124 14.3625L17.3449 14.17C17.6349 13.74 18.1149 13.235 18.4999 12.9475C19.1849 12.435 19.9924 12.1275 20.9124 12.0275C21.2149 11.995 22.1274 12.015 22.4374 12.06ZM9.7499 19.5625V26.8L7.3449 26.795L4.9374 26.7875L4.9299 19.5875C4.9274 15.6275 4.9299 12.3725 4.9374 12.355C4.9449 12.3325 5.4524 12.325 7.3499 12.325H9.7499V19.5625Z" fill="white"/>
</g>
<defs>
<clipPath id="clip0_656_12">
<rect width="32" height="32" />
</clipPath>
</defs>
</svg>
