<svg width="232" height="78" viewBox="0 0 232 78" fill="none" xmlns="http://www.w3.org/2000/svg">
<g clip-path="url(#clip0_439_17)">
<path d="M80.09 37.32C88 46.94 87.39 60.07 78.86 68.79C73.46 74.31 66.7 77.07 59.16 77.17C41.18 77.4 23.2 77.26 5.22 77.23C3.62 77.23 2.03 76.99 0 76.83C4.71 50.97 9.31 25.68 13.93 0.269993C15.63 0.159993 16.77 0.0299932 17.91 0.0299932C33.72 0.0299932 49.54 -0.0900068 65.35 0.139993C69.27 0.199993 73.3 0.999993 77.07 2.15999C85.4 4.71999 89.7 12.14 88.38 20.83C87.4 27.25 85.09 33.02 80.09 37.32ZM33.74 19.39C33.14 22.79 32.59 25.95 32.08 28.84C32.79 29.41 33.04 29.79 33.3 29.79C42.42 29.86 51.54 30.15 60.65 29.79C64.12 29.65 66.73 27.27 66.83 23.33C64.58 20.54 63.41 19.49 60.71 19.45C51.93 19.29 43.15 19.39 33.74 19.39ZM28.37 48.93C27.83 52.73 27.41 55.7 26.92 59.17C36.87 59.17 45.98 59.38 55.07 59.08C59.25 58.94 60.78 56.84 61.48 52.38C58.78 49.39 58.75 49.27 55.25 49.16C50.27 49 45.28 48.98 40.3 48.94C36.5 48.91 32.71 48.93 28.37 48.93Z" fill="black"/>
<path d="M185.58 76.92C179.07 76.92 173 76.92 166.33 76.92C169.63 58.62 172.85 40.74 176.14 22.43C170.41 22.43 165.49 22.43 159.9 22.43C156.65 40.63 153.4 58.86 150.21 76.72C147.28 77.55 146.83 75.85 146.36 74.5C143.84 67.29 141.41 60.05 138.9 52.67C140.09 51.55 141.13 50.5 142.23 49.52C151.82 40.92 155.05 29.88 153.97 17.45C153.41 11.01 149.49 6.46999 143.94 3.36999C142.35 2.47999 140.66 1.78999 138 0.519993C139.9 0.279993 140.88 0.0399933 141.86 0.0399933C165.18 0.0799933 188.49 0.249993 211.81 0.169993C228.32 0.109993 233.43 10.21 231.57 23.89C230.65 30.65 229.19 37.34 227.97 44.06C226.24 53.57 224.53 63.08 222.76 72.58C222.49 74.01 221.93 75.39 221.47 76.89C215.33 76.89 209.43 76.89 203.27 76.89C203.27 75.07 203.05 73.59 203.3 72.19C205.75 58.76 208.31 45.36 210.75 31.93C211.19 29.51 211.21 27.02 211.42 24.64C206.49 20.43 201.26 22.75 195.75 22.21C192.36 40.52 189.02 58.47 185.58 76.92Z" fill="black"/>
<path d="M120.54 76.89C109.53 76.89 99 76.89 87.99 76.89C89.43 68.97 90.79 61.52 92.19 53.84C98.94 53.84 105.51 53.84 112.57 53.84C115.19 61.44 117.82 69.05 120.54 76.89Z" fill="black"/>
<path d="M96.6499 32.19C97.4399 27.71 98.1299 23.83 98.9099 19.44C103.99 19.44 108.76 19.44 113.54 19.44C117.86 19.44 122.19 19.31 126.51 19.49C130.54 19.66 132.66 21.46 132.92 24.44C133.22 27.81 131.13 31.16 127.94 32.23C126.85 32.6 125.67 32.86 124.53 32.86C116.21 32.91 107.9 32.9 99.5799 32.85C98.7999 32.85 98.0199 32.51 96.6499 32.19Z" fill="black"/>
</g>
<defs>
<clipPath id="clip0_439_17">
<rect width="231.94" height="77.3" fill="white"/>
</clipPath>
</defs>
</svg>
