<svg width="264" height="264" viewBox="0 0 264 264" fill="none" xmlns="http://www.w3.org/2000/svg">
<g clip-path="url(#clip0_439_11)">
<path d="M144.35 27.5C155.5 18.19 166.2 9.26 177.29 0C179.99 3.26 182.52 6.07 184.78 9.09C197.09 25.56 207.71 42.99 215.14 62.26C220.62 76.47 223.91 91.12 225.36 106.3C226.69 120.27 224.93 133.8 221.57 147.28C220.78 150.45 219.12 152.66 216.54 154.39C199.49 165.76 181.38 174.65 160.91 177.96C151.29 179.52 141.7 179.5 132.17 177.36C130.9 177.07 129.67 176.63 128.48 175.83C131.67 175.6 134.88 175.56 138.04 175.11C150.41 173.34 159.89 166.56 167.78 157.32C177.44 146.01 182.19 132.88 182.46 117.96C182.78 100.04 177.9 83.44 170.27 67.52C164.06 54.56 156.21 42.61 147.19 31.42C146.25 30.26 145.44 29.02 144.35 27.5Z" fill="black"/>
<path d="M137.07 88.06C132.47 88.26 128.77 88.14 125.17 88.63C113 90.3 103.54 96.82 95.66 105.85C85.37 117.65 80.53 131.65 80.49 147.11C80.46 158.63 82.72 169.91 86.51 180.84C92.81 198.97 102.56 215.14 114.31 230.2C115.72 232.01 117.09 233.86 118.77 236.08C107.7 245.37 96.92 254.4 85.77 263.76C82.88 260.17 80.19 257.03 77.71 253.72C64.67 236.31 53.67 217.75 46.39 197.16C42.33 185.69 39.5 173.95 38.22 161.78C36.92 149.42 37.36 137.2 39.51 125.03C40.17 121.29 41.23 117.57 42.53 114C43.1 112.43 44.48 110.88 45.89 109.92C60.54 99.9 76.08 91.64 93.48 87.49C106.23 84.44 119.11 83.68 132.03 86.6C133.44 86.91 134.81 87.39 137.07 88.06Z" fill="black"/>
<path d="M27.37 119.2C18.14 108.15 9.2 97.46 0 86.45C1.22 85.18 2.11 84.01 3.23 83.12C24.35 66.24 47.3 52.64 73.22 44.46C87.61 39.92 102.37 37.52 117.45 37.81C127.77 38.01 138.04 38.99 147.96 42.25C150.44 43.06 152.4 44.19 153.9 46.42C165.19 63.14 173.91 80.95 177.58 100.98C179.87 113.47 179.44 127.78 174.48 139.21C176.11 130.04 175.03 122 171.48 114.65C162.14 95.36 146.46 84.4 125.34 81.39C105.49 78.57 87.05 83.89 69.25 92C55.39 98.32 42.8 106.73 30.96 116.29C29.93 117.15 28.89 117.98 27.37 119.2Z" fill="black"/>
<path d="M88.2899 125.5C85.3299 150.64 101.89 168.55 120.44 177.45C132.65 183.3 145.57 183.66 158.6 182.12C181 179.47 200.59 169.74 218.94 157.19C224.57 153.34 229.93 149.1 235.88 144.69C245.03 155.63 254.14 166.51 263.37 177.53C254.51 185.17 245.43 191.61 236 197.56C217.69 209.11 198.23 218.12 176.96 222.5C167.71 224.4 158.2 225.13 148.78 226.03C139.59 226.91 119.98 223.5 111.1 219.81C102.75 207.99 95.4399 195.2 90.4399 181.11C85.9899 168.56 83.6799 155.7 84.5599 142.4C84.9399 136.65 85.3399 130.79 88.4199 125.61L88.2899 125.5Z" fill="black"/>
<path d="M88.41 125.61C88.44 125.28 88.47 124.96 88.45 125.2C88.57 124.99 88.43 125.24 88.28 125.49L88.41 125.61Z" fill="black"/>
</g>
<defs>
<clipPath id="clip0_439_11">
<rect width="263.37" height="263.76" fill="white"/>
</clipPath>
</defs>
</svg>
