<svg width="123" height="119" viewBox="0 0 123 119" fill="none" xmlns="http://www.w3.org/2000/svg">
<path d="M122.1 69.95C93.4201 69.95 65.8201 69.95 38.2701 69.95C37.1001 79.65 43.1701 87.91 53.5801 91.99C62.7701 95.58 79.5001 93.49 87.3101 80.07C96.7401 82.7 106.27 85.36 116.14 88.12C111.91 96.99 105.58 103.4 97.8201 108.53C71.2601 126.07 30.6101 120.37 12.3401 95.98C-1.9999 76.83 -3.1699 55.59 6.1101 34.08C15.1201 13.22 32.1301 2.86 54.4301 0.689999C67.2701 -0.560001 79.7101 0.890003 91.3101 6.85C110.21 16.57 120.08 32.43 122.03 53.33C122.52 58.57 122.1 63.89 122.1 69.95ZM37.1801 48.37C53.3301 48.37 69.4901 48.37 85.7001 48.37C83.0201 32.59 73.0901 24.21 59.2901 25.14C45.1201 26.09 36.7001 38.56 37.1801 48.37Z" fill="black"/>
</svg>
