<svg width="100" height="119" viewBox="0 0 100 119" fill="none" xmlns="http://www.w3.org/2000/svg">
<path d="M94.04 16.33C89.58 23.22 85.27 29.9 80.8 36.81C76.67 34.4 72.91 32.02 68.99 29.95C61.51 25.99 53.65 23.45 45.04 24.68C43.11 24.95 41.1 25.54 39.41 26.48C33.67 29.67 33.37 37.46 39.07 40.71C42.47 42.65 46.4 43.73 50.18 44.93C57.93 47.38 65.78 49.56 73.52 52.05C76.51 53.01 79.4 54.37 82.21 55.8C101.09 65.39 105.17 88.87 90.73 104.56C83.89 111.99 75.16 116.02 65.41 117.4C43.9 120.45 23.66 116.82 5.36001 104.56C3.58001 103.37 1.99001 101.91 0.0100098 100.33C4.10001 93.27 8.08001 86.42 12.05 79.56C18.4 82.89 24.42 86.3 30.66 89.24C37.49 92.46 44.76 94.19 52.39 93.97C54.05 93.92 55.73 93.82 57.34 93.46C62.51 92.3 65.34 89.52 65.68 85.46C66.02 81.53 64.16 78.31 59.14 76.5C50.1 73.23 40.82 70.62 31.71 67.55C27.31 66.07 22.91 64.45 18.74 62.42C5.57001 55.99 0.76001 46.06 3.70001 31.65C6.78001 16.56 16.58 7.12998 30.74 3.10998C51.8 -2.86002 71.94 -0.140013 90.06 13.02C91.39 13.99 92.59 15.12 94.04 16.33Z" fill="black"/>
</svg>
