<svg width="167" height="118" viewBox="0 0 167 118" fill="none" xmlns="http://www.w3.org/2000/svg">
<path d="M119.55 117.51C111.85 117.51 104.55 117.51 96.7701 117.51C92.4601 106.89 88.1301 96.21 83.3901 84.54C78.7101 96.1 74.4201 106.68 70.0701 117.41C62.4601 117.41 55.0101 117.41 47.2001 117.41C31.5801 78.49 15.9301 39.51 0.100098 0.08C9.7501 0.08 18.9501 0.08 28.6401 0.08C38.4401 24.43 48.3201 49 58.6501 74.66C62.4301 65.3 65.7701 57.03 69.0901 48.8C62.6101 32.6 56.2101 16.6 49.6001 0.09C59.2801 0.09 68.3401 0.09 78.0901 0.09C87.8301 24.28 97.7201 48.84 107.61 73.4C107.96 73.4 108.31 73.4 108.66 73.39C118.47 48.99 128.28 24.59 138.17 0C147.52 0 156.79 0 166.71 0C150.96 39.23 135.32 78.2 119.55 117.51Z" fill="black"/>
</svg>
