<svg width="284" height="318" viewBox="0 0 284 318" fill="none" xmlns="http://www.w3.org/2000/svg">
<g clip-path="url(#clip0_439_2)">
<path d="M278.2 298.46C280.961 298.46 283.2 296.221 283.2 293.46C283.2 290.699 280.961 288.46 278.2 288.46C275.439 288.46 273.2 290.699 273.2 293.46C273.2 296.221 275.439 298.46 278.2 298.46Z" fill="black"/>
<path d="M119.55 117.51C111.85 117.51 104.55 117.51 96.7701 117.51C92.4601 106.89 88.1301 96.21 83.3901 84.54C78.7101 96.1 74.4201 106.68 70.0701 117.41C62.4601 117.41 55.0101 117.41 47.2001 117.41C31.5801 78.49 15.9301 39.51 0.100098 0.08C9.7501 0.08 18.9501 0.08 28.6401 0.08C38.4401 24.43 48.3201 49 58.6501 74.66C62.4301 65.3 65.7701 57.03 69.0901 48.8C62.6101 32.6 56.2101 16.6 49.6001 0.09C59.2801 0.09 68.3401 0.09 78.0901 0.09C87.8301 24.28 97.7201 48.84 107.61 73.4C107.96 73.4 108.31 73.4 108.66 73.39C118.47 48.99 128.28 24.59 138.17 0C147.52 0 156.79 0 166.71 0C150.96 39.23 135.32 78.2 119.55 117.51Z" fill="black"/>
<path d="M248.1 225.95C219.42 225.95 191.82 225.95 164.27 225.95C163.1 235.65 169.17 243.91 179.58 247.99C188.77 251.58 205.5 249.49 213.31 236.07C222.74 238.7 232.27 241.36 242.14 244.12C237.91 252.99 231.58 259.4 223.82 264.53C197.26 282.07 156.61 276.37 138.34 251.98C124 232.83 122.83 211.59 132.11 190.08C141.12 169.22 158.13 158.86 180.43 156.69C193.27 155.44 205.71 156.89 217.31 162.85C236.21 172.57 246.08 188.43 248.03 209.33C248.52 214.57 248.1 219.89 248.1 225.95ZM163.18 204.37C179.33 204.37 195.49 204.37 211.7 204.37C209.02 188.59 199.09 180.21 185.29 181.14C171.12 182.09 162.7 194.56 163.18 204.37Z" fill="black"/>
<path d="M94.04 172.33C89.58 179.22 85.27 185.9 80.8 192.81C76.67 190.4 72.91 188.02 68.99 185.95C61.51 181.99 53.65 179.45 45.04 180.68C43.11 180.95 41.1 181.54 39.41 182.48C33.67 185.67 33.37 193.46 39.07 196.71C42.47 198.65 46.4 199.73 50.18 200.93C57.93 203.38 65.78 205.56 73.52 208.05C76.51 209.01 79.4 210.37 82.21 211.8C101.09 221.39 105.17 244.87 90.73 260.56C83.89 267.99 75.16 272.02 65.41 273.4C43.9 276.45 23.66 272.82 5.36001 260.56C3.58001 259.37 1.99001 257.91 0.0100098 256.33C4.10001 249.27 8.08001 242.42 12.05 235.56C18.4 238.89 24.42 242.3 30.66 245.24C37.49 248.46 44.76 250.19 52.39 249.97C54.05 249.92 55.73 249.82 57.34 249.46C62.51 248.3 65.34 245.52 65.68 241.46C66.02 237.53 64.16 234.31 59.14 232.5C50.1 229.23 40.82 226.62 31.71 223.55C27.31 222.07 22.91 220.45 18.74 218.42C5.57001 211.99 0.76001 202.06 3.70001 187.65C6.78001 172.56 16.58 163.13 30.74 159.11C51.8 153.14 71.94 155.86 90.06 169.02C91.39 169.99 92.59 171.12 94.04 172.33Z" fill="black"/>
<path d="M224.43 117.52C215.5 117.52 207.2 117.52 198.49 117.52C198.49 87.89 198.49 58.38 198.49 28.11C207.4 35.26 216.01 42.18 224.43 48.93C224.43 71.89 224.43 94.48 224.43 117.52Z" fill="black"/>
<path d="M200.7 0.109985C208.14 0.109985 215.57 0.109985 223.55 0.109985C223.55 6.32999 223.55 12.46 223.55 19.55C215.46 13.07 207.84 6.95999 200.22 0.849985C200.38 0.599985 200.54 0.359985 200.7 0.109985Z" fill="black"/>
<path d="M257.2 313.46H1.19995V317.46H257.2V313.46Z" fill="black"/>
</g>
<defs>
<clipPath id="clip0_439_2">
<rect width="283.2" height="317.46" fill="white"/>
</clipPath>
</defs>
</svg>
