<svg width="79" height="24" viewBox="0 0 79 24" fill="none" xmlns="http://www.w3.org/2000/svg">
<path d="M12.384 23.04C10.688 23.04 9.136 22.768 7.728 22.224C6.32 21.68 5.104 20.912 4.08 19.92C3.056 18.928 2.256 17.76 1.68 16.416C1.12 15.056 0.84 13.568 0.84 11.952C0.84 10.32 1.12 8.832 1.68 7.488C2.24 6.128 3.032 4.952 4.056 3.96C5.096 2.968 6.32 2.2 7.728 1.656C9.136 1.112 10.688 0.839999 12.384 0.839999C13.92 0.839999 15.336 1.112 16.632 1.656C17.928 2.2 19.048 2.968 19.992 3.96C20.936 4.952 21.664 6.128 22.176 7.488C22.704 8.832 22.968 10.32 22.968 11.952H20.616C20.616 10.656 20.408 9.472 19.992 8.4C19.592 7.328 19.024 6.4 18.288 5.616C17.568 4.816 16.704 4.2 15.696 3.768C14.688 3.336 13.584 3.12 12.384 3.12C11.024 3.12 9.784 3.336 8.664 3.768C7.544 4.2 6.576 4.816 5.76 5.616C4.944 6.4 4.312 7.328 3.864 8.4C3.416 9.472 3.192 10.656 3.192 11.952C3.192 13.248 3.416 14.432 3.864 15.504C4.312 16.576 4.944 17.504 5.76 18.288C6.576 19.072 7.544 19.68 8.664 20.112C9.784 20.544 11.024 20.76 12.384 20.76C12.944 20.76 13.544 20.672 14.184 20.496C14.824 20.336 15.36 20.12 15.792 19.848L17.088 21.696C16.416 22.096 15.64 22.416 14.76 22.656C13.88 22.912 13.088 23.04 12.384 23.04ZM10.944 17.664C9.968 17.664 9.104 17.424 8.352 16.944C7.6 16.448 7.008 15.768 6.576 14.904C6.16 14.04 5.952 13.056 5.952 11.952C5.952 10.832 6.16 9.848 6.576 9C7.008 8.152 7.6 7.488 8.352 7.008C9.104 6.512 9.968 6.264 10.944 6.264C11.952 6.264 12.84 6.512 13.608 7.008C14.392 7.488 15 8.152 15.432 9C15.88 9.848 16.104 10.832 16.104 11.952C16.104 13.056 15.88 14.04 15.432 14.904C15 15.768 14.392 16.448 13.608 16.944C12.84 17.424 11.952 17.664 10.944 17.664ZM11.928 15.024C12.472 15.024 12.952 14.896 13.368 14.64C13.784 14.368 14.112 14 14.352 13.536C14.592 13.072 14.712 12.544 14.712 11.952C14.712 11.344 14.584 10.816 14.328 10.368C14.072 9.904 13.728 9.544 13.296 9.288C12.864 9.016 12.36 8.88 11.784 8.88C11.224 8.88 10.728 9.008 10.296 9.264C9.88 9.52 9.544 9.88 9.288 10.344C9.048 10.792 8.928 11.32 8.928 11.928C8.928 12.52 9.056 13.056 9.312 13.536C9.584 14 9.936 14.368 10.368 14.64C10.816 14.896 11.336 15.024 11.928 15.024ZM18.048 18.36C17.408 18.36 16.832 18.232 16.32 17.976C15.824 17.72 15.432 17.368 15.144 16.92C14.872 16.456 14.736 15.92 14.736 15.312L17.232 15.168C17.232 15.568 17.328 15.856 17.52 16.032C17.712 16.192 17.96 16.272 18.264 16.272C18.728 16.272 19.136 16.088 19.488 15.72C19.84 15.352 20.112 14.848 20.304 14.208C20.512 13.552 20.616 12.8 20.616 11.952H22.968C22.968 13.2 22.752 14.304 22.32 15.264C21.904 16.224 21.328 16.984 20.592 17.544C19.856 18.088 19.008 18.36 18.048 18.36ZM14.736 15.312L14.592 6.504H17.232V15.168L14.736 15.312ZM32.6753 18V15.096H37.4993C38.2833 15.096 38.8993 14.904 39.3473 14.52C39.7953 14.12 40.0193 13.592 40.0193 12.936C40.0193 12.248 39.7713 11.704 39.2753 11.304C38.7793 10.904 38.0993 10.712 37.2353 10.728H32.6753V8.184L35.5793 8.232C37.1473 8.232 38.5153 8.408 39.6833 8.76C40.8513 9.096 41.7553 9.624 42.3953 10.344C43.0513 11.064 43.3793 12.016 43.3793 13.2C43.3793 14.224 43.1473 15.096 42.6833 15.816C42.2193 16.536 41.5713 17.08 40.7393 17.448C39.9073 17.816 38.9313 18 37.8113 18H32.6753ZM31.3553 18V1.2H34.5713V18H31.3553ZM32.5553 10.896V8.04H37.1153C37.8353 8.04 38.4033 7.856 38.8193 7.488C39.2353 7.12 39.4433 6.6 39.4433 5.928C39.4433 5.256 39.2113 4.736 38.7473 4.368C38.2833 3.984 37.6513 3.8 36.8513 3.816H32.5553V1.224L37.0433 1.176C38.1953 1.176 39.2033 1.36 40.0673 1.728C40.9313 2.08 41.6033 2.616 42.0833 3.336C42.5633 4.04 42.8033 4.92 42.8033 5.976C42.8033 6.84 42.5073 7.624 41.9153 8.328C41.3393 9.032 40.5233 9.592 39.4673 10.008C38.4273 10.424 37.2113 10.632 35.8193 10.632L32.5553 10.896ZM48.9546 12.048V9.048H52.3146C52.8106 9.048 53.2506 8.944 53.6346 8.736C54.0346 8.528 54.3466 8.24 54.5706 7.872C54.8106 7.504 54.9306 7.088 54.9306 6.624C54.9306 5.904 54.6666 5.32 54.1386 4.872C53.6266 4.424 52.9626 4.2 52.1466 4.2H48.9546V1.2L52.2906 1.176C53.4746 1.16 54.5226 1.392 55.4346 1.872C56.3466 2.336 57.0586 2.976 57.5706 3.792C58.0826 4.608 58.3386 5.552 58.3386 6.624C58.3386 7.68 58.0666 8.624 57.5226 9.456C56.9946 10.272 56.2666 10.912 55.3386 11.376C54.4106 11.824 53.3546 12.048 52.1706 12.048H48.9546ZM46.0506 18V1.2H49.3386V18H46.0506ZM55.2906 18L51.4026 11.256L53.9226 9.456L59.0106 18H55.2906ZM69.9913 13.968L61.6633 1.848L63.1993 1.392L65.0953 1.2L71.6473 10.92L69.9913 13.968ZM61.5193 18V1.2H64.8073V18H61.5193ZM69.9913 13.968L68.3353 10.92L74.8873 1.2L76.7833 1.392L78.2713 1.8L69.9913 13.968ZM75.1753 18V1.2H78.4393V18H75.1753Z" fill="url(#paint0_linear_42_136)"/>
<defs>
<linearGradient id="paint0_linear_42_136" x1="0" y1="-1" x2="8.00212" y2="36.6101" gradientUnits="userSpaceOnUse">
<stop stop-color="#A4DAF9"/>
<stop offset="0.0001" stop-color="#A4DAF9"/>
<stop offset="1" stop-color="#1B4380"/>
</linearGradient>
</defs>
</svg>
