<svg width="55" height="62" viewBox="0 0 55 62" fill="none" xmlns="http://www.w3.org/2000/svg">
<path d="M0 0.123413L4.98265 55.0865L27.3416 61.1671L49.7623 55.0933L54.7499 0.123413H0ZM44.3862 13.1364L44.0739 16.6531L43.9365 18.2658H17.7085L18.3345 25.1305H43.3129L43.1456 26.8324L41.5355 44.5428L41.417 45.6559L27.3749 49.4555V49.4565L27.358 49.4653L13.3254 45.8255L12.3727 35.4275H19.2528L19.7404 40.7815L27.3535 42.7825H27.3749V42.5148L35.022 40.6147L35.8208 31.9952H12.0664L10.3816 13.3051L10.2178 11.4011H44.5505L44.3862 13.1364Z" fill="url(#paint0_linear_34_50)"/>
<defs>
<linearGradient id="paint0_linear_34_50" x1="0" y1="0.123413" x2="54.045" y2="62.0012" gradientUnits="userSpaceOnUse">
<stop stop-color="#A4DAF9"/>
<stop offset="0.0001" stop-color="#A4DAF9"/>
<stop offset="1" stop-color="#1B4380"/>
</linearGradient>
</defs>
</svg>
