<svg width="55" height="62" viewBox="0 0 55 62" fill="none" xmlns="http://www.w3.org/2000/svg">
<path d="M0 0.123413L4.96888 55.0464L27.2648 61.1671L49.623 55.024L54.5959 0.123413H0ZM44.2731 12.7065L42.6192 31.0031L42.6241 31.1019L42.6172 31.3291V31.3272L41.4421 44.1204L41.3126 45.257L27.2979 49.0735V49.074L27.2871 49.0832L13.2966 45.2453L12.3493 34.6683H19.2099L19.6966 40.0466L27.2999 42.0755L27.2979 42.0794V42.0784L34.9294 40.0208L35.7359 31.2625H19.7826L19.6457 29.7819L19.3339 26.3133L19.1703 24.4508H36.3422L36.9669 17.6391H10.8124L10.6755 16.1595L10.3642 12.69L10.2002 10.8275H44.4367L44.2731 12.7065Z" fill="url(#paint0_linear_34_54)"/>
<defs>
<linearGradient id="paint0_linear_34_54" x1="0" y1="0.123413" x2="54.0653" y2="61.8503" gradientUnits="userSpaceOnUse">
<stop stop-color="#A4DAF9"/>
<stop offset="0.0001" stop-color="#A4DAF9"/>
<stop offset="1" stop-color="#1B4380"/>
</linearGradient>
</defs>
</svg>
