<svg width="64" height="62" viewBox="0 0 64 62" fill="none" xmlns="http://www.w3.org/2000/svg">
<path d="M58.1958 47.3775C54.7482 47.285 52.1154 47.6011 49.8644 48.5354C49.2249 48.801 48.2041 48.8084 48.0996 49.5973C48.4513 49.9598 48.506 50.5019 48.7853 50.948C49.3228 51.8037 50.2301 52.9521 51.0399 53.5536C51.925 54.2114 52.8368 54.9142 53.7852 55.4835C55.4721 56.496 57.3554 57.0746 58.9795 58.0891C59.937 58.6875 60.8879 59.4408 61.8218 60.1155C62.284 60.4493 62.5939 60.9682 63.1942 61.1774V61.0814C62.8787 60.6857 62.7974 60.1427 62.508 59.7297L61.2336 58.4749C59.9877 56.8466 58.4058 55.4162 56.7245 54.2287C55.3837 53.2811 52.3832 52.001 51.824 50.4653L51.7261 50.3688C52.6765 50.263 53.7892 49.9247 54.6668 49.6927C56.1407 49.304 57.4579 49.4044 58.9795 49.0176L61.0376 48.4384V48.0526C60.2685 47.2756 59.72 46.2468 58.8816 45.5435C56.6863 43.7036 54.2911 41.8652 51.8245 40.3319C50.4561 39.4822 48.7657 38.9297 47.3155 38.2091C46.8277 37.9662 45.9707 37.8401 45.6487 37.4365C44.8866 36.4809 44.4722 35.2692 43.8849 34.1558C42.6547 31.8228 41.4465 29.2751 40.3564 26.8204C39.6129 25.1466 39.1272 23.4967 38.1998 21.995C33.749 14.7902 28.9586 10.4422 21.5374 6.16781C19.958 5.25873 18.0566 4.90014 16.0472 4.43027C14.9697 4.36647 13.8911 4.30167 12.8131 4.23688C12.1545 3.96683 11.4703 3.17398 10.8529 2.78918C8.39441 1.25988 2.08791 -2.06632 0.267393 2.30695C-0.882485 5.06732 1.98593 7.75993 3.01123 9.15915C3.7316 10.1395 4.65341 11.2399 5.16781 12.3434C5.5064 13.069 5.56467 13.7965 5.85453 14.5637C6.56636 16.454 7.18676 18.5106 8.10857 20.257C8.57425 21.1414 9.08765 22.0722 9.6769 22.8626C10.0376 23.3478 10.657 23.5615 10.7544 24.3103C10.1496 25.1442 10.115 26.439 9.77486 27.4955C8.2427 32.2511 8.8209 38.1626 11.0493 41.6822C11.7325 42.7634 13.3436 45.0806 15.5579 44.1913C17.495 43.4147 17.0624 41.007 17.6165 38.8832C17.7416 38.402 17.6648 38.0478 17.9104 37.7253V37.8218L19.6752 41.2959C20.9813 43.3668 23.2981 45.5307 25.2623 46.9907C26.2806 47.748 27.0823 49.0567 28.399 49.4998V49.4029H28.301C28.0458 49.0117 27.6465 48.8494 27.3209 48.5349C26.5538 47.7944 25.7009 46.874 25.0669 46.0257C23.2805 43.6383 21.7022 41.0253 20.2639 38.3055C19.5767 37.0062 18.9794 35.5738 18.4007 34.2518C18.1777 33.7423 18.1807 32.9712 17.7155 32.7076C17.081 33.6761 16.1472 34.4595 15.6569 35.603C14.8727 37.4311 14.7717 39.6607 14.4809 41.9725C14.3091 42.0328 14.3854 41.9913 14.2845 42.0684C12.9191 41.7445 12.4398 40.3611 11.932 39.1735C10.649 36.1713 10.4103 31.3381 11.5396 27.8823C11.832 26.9876 13.1522 24.1723 12.6177 23.3458C12.3625 22.5218 11.5205 22.045 11.0498 21.4154C10.4666 20.6369 9.88488 19.6121 9.48049 18.7129C8.43058 16.3729 7.94028 13.7451 6.83461 11.3789C6.30564 10.2478 5.41196 9.10277 4.67802 8.09774C3.86572 6.9834 2.95547 6.16286 2.32552 4.81606C2.10147 4.33729 1.79755 3.57065 2.1291 3.07853C2.23459 2.74665 2.38429 2.60816 2.71735 2.49984C3.28601 2.06805 4.86942 2.64328 5.46119 2.88514C7.03304 3.52812 8.34518 4.14043 9.6769 5.00895C10.3154 5.4264 10.9624 6.23309 11.735 6.45665H12.6172C13.9971 6.76875 15.5428 6.5531 16.8324 6.93889C19.111 7.62045 21.1531 8.68137 23.0073 9.83428C28.6567 13.3469 33.2763 18.3464 36.4361 24.3108C36.9444 25.2713 37.1645 26.1873 37.6121 27.2062C38.5153 29.2602 39.6531 31.3737 40.5518 33.3828C41.449 35.3869 42.3231 37.4093 43.591 39.0771C44.2577 39.9535 46.8317 40.4239 48.0022 40.9111C48.822 41.2519 50.1658 41.608 50.9429 42.0684C52.4264 42.9498 53.8641 43.9989 55.2561 44.9643C55.9508 45.4466 58.0893 46.5055 58.1958 47.3775ZM14.3814 10.6083C13.6625 10.595 13.1542 10.6855 12.6167 10.8007V10.8972H12.7146C13.0577 11.5906 13.663 12.0377 14.0865 12.6347C14.4131 13.3108 14.7401 13.986 15.0671 14.6611L15.1646 14.5656C15.7719 14.1437 16.0497 13.4706 16.0462 12.4418C15.8031 12.1901 15.7674 11.8745 15.5564 11.5738C15.2771 11.1727 14.7351 10.9447 14.3814 10.6083Z" fill="url(#paint0_linear_34_68)"/>
<defs>
<linearGradient id="paint0_linear_34_68" x1="0" y1="0.133667" x2="52.4878" y2="69.4974" gradientUnits="userSpaceOnUse">
<stop stop-color="#A4DAF9"/>
<stop offset="0.0001" stop-color="#A4DAF9"/>
<stop offset="1" stop-color="#1B4380"/>
</linearGradient>
</defs>
</svg>
