<svg width="62" height="62" viewBox="0 0 62 62" fill="none" xmlns="http://www.w3.org/2000/svg">
<path d="M60.8312 27.9366L33.7609 1.28482C32.2029 -0.25005 29.6745 -0.25005 28.1141 1.28482L22.4934 6.81983L29.6239 13.8404C31.2815 13.2896 33.1813 13.659 34.502 14.9594C35.8296 16.2679 36.2019 18.1544 35.6287 19.7917L42.5009 26.5584C44.1634 25.9941 46.0824 26.3587 47.4095 27.6682C49.266 29.4947 49.266 32.4556 47.4095 34.2831C46.9683 34.7177 46.4444 35.0624 45.8679 35.2976C45.2913 35.5328 44.6733 35.6539 44.0493 35.6539C43.4252 35.6539 42.8072 35.5328 42.2306 35.2976C41.6541 35.0624 41.1302 34.7177 40.689 34.2831C40.0262 33.63 39.5743 32.7985 39.3904 31.8932C39.2064 30.9879 39.2985 30.0492 39.6552 29.1954L33.2466 22.8857L33.2456 39.4921C33.7106 39.7176 34.1351 40.0162 34.5025 40.3761C36.3581 42.2026 36.3581 45.1625 34.5025 46.9929C32.6464 48.8193 29.6381 48.8193 27.784 46.9929C25.9285 45.163 25.9285 42.2031 27.784 40.3761C28.2286 39.9377 28.7574 39.5909 29.3395 39.3558V22.5955C28.7569 22.3611 28.228 22.014 27.784 21.5747C26.3784 20.1917 26.04 18.1606 26.761 16.4604L19.7311 9.53897L1.16953 27.8133C0.42068 28.5508 0 29.551 0 30.5939C0 31.6367 0.42068 32.6369 1.16953 33.3744L28.2403 60.0262C29.7992 61.5611 32.3267 61.5611 33.8881 60.0262L60.8316 33.4982C61.5803 32.7605 62.0009 31.7602 62.0008 30.7173C62.0007 29.6744 61.58 28.6742 60.8312 27.9366Z" fill="url(#paint0_linear_34_62)"/>
<defs>
<linearGradient id="paint0_linear_34_62" x1="0" y1="0.133667" x2="52.7516" y2="68.5294" gradientUnits="userSpaceOnUse">
<stop stop-color="#A4DAF9"/>
<stop offset="0.0001" stop-color="#A4DAF9"/>
<stop offset="1" stop-color="#1B4380"/>
</linearGradient>
</defs>
</svg>
