<svg width="15" height="15" viewBox="0 0 15 15" fill="none" xmlns="http://www.w3.org/2000/svg">
<path fill-rule="evenodd" clip-rule="evenodd" d="M9.75 1.5C9.33579 1.5 9 1.16421 9 0.75C9 0.335786 9.33579 0 9.75 0H14.25C14.6642 0 15 0.335786 15 0.75V5.25C15 5.66421 14.6642 6 14.25 6C13.8358 6 13.5 5.66421 13.5 5.25V2.56066L6.53033 9.53033C6.23744 9.82322 5.76256 9.82322 5.46967 9.53033C5.17678 9.23744 5.17678 8.76256 5.46967 8.46967L12.4393 1.5H9.75ZM2.25 3.75C2.05109 3.75 1.86032 3.82902 1.71967 3.96967C1.57902 4.11032 1.5 4.30109 1.5 4.5V12.75C1.5 12.9489 1.57902 13.1397 1.71967 13.2803C1.86032 13.421 2.05109 13.5 2.25 13.5H10.5C10.6989 13.5 10.8897 13.421 11.0303 13.2803C11.171 13.1397 11.25 12.9489 11.25 12.75V8.25C11.25 7.83579 11.5858 7.5 12 7.5C12.4142 7.5 12.75 7.83579 12.75 8.25V12.75C12.75 13.3467 12.5129 13.919 12.091 14.341C11.669 14.7629 11.0967 15 10.5 15H2.25C1.65326 15 1.08097 14.7629 0.65901 14.341C0.237053 13.919 0 13.3467 0 12.75V4.5C0 3.90326 0.237053 3.33097 0.65901 2.90901C1.08097 2.48705 1.65326 2.25 2.25 2.25H6.75C7.16421 2.25 7.5 2.58579 7.5 3C7.5 3.41421 7.16421 3.75 6.75 3.75H2.25Z" fill="#6C96D5"/>
</svg>
