<svg width="190" height="34" viewBox="0 0 190 34" fill="none" xmlns="http://www.w3.org/2000/svg">
<path d="M13.2838 33.2145C11.6623 33.2145 10.1644 32.9213 8.79023 32.3395C7.41604 31.7578 6.30753 30.8918 5.46927 29.7508L6.0785 28.4249V32.7003H0V0.336731H6.51366V13.8035L5.51508 12.5227C6.29837 11.3546 7.36108 10.4481 8.70778 9.80769C10.0545 9.16728 11.5936 8.84706 13.3342 8.84706C15.5925 8.84706 17.6309 9.38826 19.4585 10.4707C21.2816 11.5531 22.7291 13.0143 23.801 14.8544C24.8728 16.6944 25.4088 18.751 25.4088 21.033C25.4088 23.2835 24.882 25.3355 23.8239 27.1891C22.7657 29.0427 21.3274 30.5085 19.5043 31.5909C17.6721 32.6733 15.6016 33.2145 13.2838 33.2145ZM12.5051 27.4462C13.719 27.4462 14.7909 27.1756 15.7207 26.6344C16.646 26.0932 17.3698 25.3355 17.8919 24.3704C18.4141 23.4053 18.6752 22.2913 18.6752 21.0375C18.6752 19.7838 18.4141 18.6788 17.8919 17.7227C17.3698 16.7666 16.646 16.0134 15.7207 15.4587C14.7954 14.904 13.7236 14.6243 12.5051 14.6243C11.3462 14.6243 10.311 14.8949 9.39946 15.4361C8.48791 15.9773 7.77791 16.735 7.26946 17.7002C6.76101 18.6698 6.50908 19.7792 6.50908 21.033C6.50908 22.2868 6.76101 23.4008 7.26946 24.3659C7.77333 25.3355 8.48333 26.0887 9.39946 26.6299C10.311 27.1756 11.3462 27.4462 12.5051 27.4462Z" fill="#F5F7FA"/>
<path d="M29.2199 9.36121H35.2984V14.9626L34.8632 14.1508C35.3854 12.1845 36.2465 10.854 37.4467 10.155C38.6468 9.45592 40.076 9.10865 41.725 9.10865H43.1129V14.6649H41.07C39.4759 14.6649 38.1887 15.143 37.2039 16.0991C36.2191 17.0552 35.7289 18.3992 35.7289 20.1401V32.7094H29.2199V9.36121Z" fill="#F5F7FA"/>
<path d="M54.4958 33.2145C52.5856 33.2145 50.9549 32.8086 49.6082 31.9968C48.2615 31.185 47.24 30.053 46.5484 28.5963C45.8521 27.144 45.5086 25.4483 45.5086 23.509V9.35669H52.0222V22.9949C52.0222 23.8788 52.2009 24.6545 52.5673 25.3265C52.9292 25.9985 53.4422 26.5172 54.111 26.887C54.7752 27.2568 55.531 27.4417 56.3692 27.4417C57.2396 27.4417 57.9999 27.2568 58.6504 26.887C59.3008 26.5172 59.8093 25.9985 60.1712 25.3265C60.533 24.659 60.7163 23.8788 60.7163 22.9949V9.35669H67.2299V32.7003H61.1514V28.0821L61.4995 29.1104C60.9499 30.5085 60.0612 31.5413 58.829 32.2087C57.5831 32.8807 56.1448 33.2145 54.4958 33.2145Z" fill="#F5F7FA"/>
<path d="M71.9938 32.7048V9.36119H78.0723V13.9794L77.7242 12.9556C78.2738 11.5576 79.1625 10.5248 80.3947 9.85729C81.6268 9.18982 83.0652 8.85158 84.7142 8.85158C86.5098 8.85158 88.081 9.22139 89.4277 9.96103C90.7744 10.7007 91.8233 11.7334 92.5746 13.0594C93.3258 14.3853 93.7014 15.9322 93.7014 17.7002V32.7048H87.1877V19.0667C87.1877 18.1557 87.0045 17.3709 86.6472 16.717C86.2853 16.063 85.7769 15.5489 85.1264 15.1791C84.476 14.8093 83.7156 14.6243 82.8453 14.6243C82.007 14.6243 81.2512 14.8093 80.587 15.1791C79.9229 15.5489 79.4052 16.063 79.0434 16.717C78.6815 17.3709 78.4983 18.1557 78.4983 19.0667V32.7048H71.9938Z" fill="#F5F7FA"/>
<path d="M109.77 33.2145C107.425 33.2145 105.29 32.6868 103.367 31.6315C101.443 30.5761 99.9081 29.1284 98.763 27.2929C97.6178 25.4528 97.0452 23.3647 97.0452 21.0285C97.0452 18.6608 97.6178 16.5681 98.763 14.7416C99.9081 12.9196 101.438 11.4764 103.367 10.4256C105.29 9.37022 107.425 8.84255 109.77 8.84255C112.116 8.84255 114.241 9.37022 116.156 10.4256C118.066 11.4809 119.591 12.9196 120.736 14.7416C121.881 16.5681 122.454 18.6608 122.454 21.0285C122.454 23.3647 121.881 25.4528 120.736 27.2929C119.591 29.1329 118.066 30.5806 116.156 31.6315C114.246 32.6913 112.116 33.2145 109.77 33.2145ZM109.77 27.4462C110.957 27.4462 111.992 27.1756 112.876 26.6344C113.76 26.0932 114.452 25.3355 114.96 24.3704C115.469 23.4008 115.72 22.2913 115.72 21.0375C115.72 19.7838 115.469 18.6788 114.96 17.7227C114.452 16.7666 113.76 16.0134 112.876 15.4587C111.992 14.904 110.957 14.6243 109.77 14.6243C108.584 14.6243 107.539 14.904 106.642 15.4587C105.744 16.0134 105.043 16.7711 104.535 17.7227C104.026 18.6788 103.774 19.7838 103.774 21.0375C103.774 22.2913 104.026 23.4053 104.535 24.3704C105.038 25.34 105.744 26.0932 106.642 26.6344C107.544 27.1756 108.584 27.4462 109.77 27.4462Z" fill="#F5F7FA"/>
<path d="M188.672 4.45435C187.788 3.09234 186.569 2.06857 185.021 1.37403C183.473 0.684003 181.695 0.336733 179.689 0.336733H158.641V16.4103C158.646 16.5366 158.646 16.6674 158.646 16.7982C158.646 16.9289 158.646 17.0597 158.641 17.186C158.6 18.9539 158.261 20.5234 157.624 21.8989L157.459 22.2372C157.459 22.2417 157.455 22.2417 157.455 22.2462C156.891 23.6218 155.975 24.7808 154.706 25.7099C153.373 26.693 152.219 27.1982 150.327 27.2297H143.557C141.647 27.2297 139.966 26.7878 138.518 25.9038C137.071 25.0199 135.949 23.7931 135.152 22.2282C134.354 20.6587 133.961 18.8367 133.961 16.7531C133.961 14.8273 134.3 13.127 134.982 11.6523L135.147 11.314C135.147 11.3095 135.147 11.3095 135.152 11.305C135.715 9.92945 136.631 8.77039 137.9 7.84134C139.233 6.85816 140.387 6.35305 142.279 6.32148H152.127V0.336733H143.557C141.212 0.336733 139.045 0.742637 137.066 1.55443C135.083 2.36623 133.351 3.50725 131.876 4.9775C130.736 6.10499 129.801 7.39485 129.059 8.84707C128.835 9.28002 128.633 9.7265 128.445 10.191C127.635 12.2025 127.227 14.3898 127.227 16.7531C127.227 19.1208 127.639 21.2991 128.468 23.297C129.293 25.2905 130.443 27.0313 131.918 28.5106C133.397 29.9944 135.124 31.1489 137.107 31.9742C138.756 32.6597 140.52 33.0656 142.403 33.1784C142.783 33.2009 143.168 33.2145 143.557 33.2145H149.049C151.394 33.2145 153.561 32.8086 155.544 31.9968C157.331 31.2617 158.92 30.2604 160.295 28.9886C160.441 28.8533 160.588 28.7135 160.73 28.5737C161.866 27.4462 162.805 26.1564 163.547 24.7087C163.767 24.2757 163.973 23.8247 164.161 23.3602C164.761 21.8719 165.141 20.2889 165.297 18.6067L165.379 17.5513V5.52772H180.408C181.269 5.52772 182.011 5.69459 182.634 6.02833C183.262 6.36207 183.752 6.82209 184.1 7.4129C184.453 8.0037 184.627 8.69823 184.627 9.49199C184.627 10.2587 184.453 10.9397 184.1 11.5305C183.752 12.1213 183.262 12.5813 182.634 12.9151C182.011 13.2488 181.269 13.4157 180.408 13.4157H171.874V18.6067H179.689C181.668 18.6067 183.431 18.2549 184.984 17.5468C186.532 16.8433 187.755 15.8105 188.653 14.453C189.551 13.091 190 11.4403 190 9.49199C190 7.48956 189.56 5.81186 188.672 4.45435Z" fill="#83ABE7"/>
</svg>
