<svg width="60" height="100" viewBox="0 0 60 100" fill="none" xmlns="http://www.w3.org/2000/svg">
<path d="M15.9861 0C18.4352 0 20.759 0.552183 22.8364 1.53734C26.1611 3.09798 28.8512 5.77532 30.4316 9.08568C31.4214 11.1533 31.9707 13.4661 31.9707 15.9106V31.8143H27.3974C25.8528 31.8143 24.4843 31.0456 23.6542 29.8713C23.1737 29.1931 22.8819 28.3792 22.8351 27.5023V15.9106C22.8351 12.1453 19.7678 9.09253 15.9847 9.09253C12.2016 9.09253 9.1343 12.1453 9.1343 15.9106V40.9068H29.6868C35.5763 40.9068 41.0596 42.6099 45.6729 45.549C47.6594 46.8136 49.4849 48.3112 51.1094 49.9979C52.4943 51.4339 53.7306 53.0055 54.8017 54.6922C57.6982 59.2549 59.375 64.6548 59.375 70.4534C59.375 76.252 57.6982 81.6519 54.8017 86.2146C53.732 87.9013 52.4957 89.4729 51.1094 90.9088C49.4835 92.5955 47.6581 94.0931 45.6729 95.3578C41.0596 98.2969 35.5763 100 29.6868 100C21.7089 100 14.469 96.8732 9.1343 91.7748L8.26423 90.9088C3.14159 85.5994 0 78.3936 0 70.452V59.0877H4.56784C7.0913 59.0877 9.13568 61.1211 9.13568 63.634V70.452C9.13568 81.7478 18.3388 90.9075 29.6882 90.9075C36.1435 90.9075 41.9076 87.9451 45.6742 83.3084C48.5309 79.7939 50.2421 75.3216 50.2421 70.452C50.2421 65.581 48.5309 61.1101 45.6742 57.5956C41.9076 52.9589 36.1448 49.9966 29.6882 49.9966H4.56784C2.043 49.9966 0 47.9632 0 45.4517V15.9106C0 13.4661 0.549297 11.1533 1.53913 9.08568C3.11957 5.77669 5.80961 3.09935 9.1343 1.53734C11.2117 0.552183 13.5356 0 15.9861 0Z" fill="#FCF5E1"/>
</svg>
